<svg width="40" height="40" viewBox="0 0 40 40" fill="none" xmlns="http://www.w3.org/2000/svg"><path d="M20.394 40h-.399c-3.135.007-6.032-.072-8.85-.244-2.582-.157-4.94-1.05-6.818-2.58-1.812-1.479-3.05-3.477-3.678-5.939-.547-2.143-.576-4.247-.604-6.283-.02-1.46-.04-3.19-.045-4.95.004-1.767.025-3.497.045-4.958.028-2.034.057-4.139.604-6.282.628-2.463 1.866-4.46 3.678-5.938C6.205 1.294 8.563.402 11.146.245 13.963.073 16.86-.007 20.003 0c3.136-.007 6.032.072 8.85.244 2.583.157 4.94 1.05 6.819 2.58 1.812 1.478 3.05 3.476 3.678 5.939.547 2.143.575 4.248.603 6.283.02 1.46.041 3.19.045 4.95v.007c-.003 1.76-.025 3.49-.045 4.95-.028 2.035-.056 4.14-.603 6.283-.629 2.462-1.866 4.46-3.678 5.938-1.878 1.531-4.236 2.424-6.82 2.581-2.697.164-5.469.244-8.458.244zm-.399-3.125c3.085.007 5.917-.07 8.668-.238 1.953-.119 3.647-.752 5.034-1.884 1.282-1.046 2.165-2.489 2.625-4.288.455-1.785.481-3.7.507-5.553.02-1.45.04-3.17.044-4.912-.004-1.742-.025-3.46-.044-4.91-.026-1.854-.052-3.77-.507-5.554-.46-1.8-1.343-3.243-2.625-4.289-1.387-1.13-3.08-1.765-5.034-1.883a136.54 136.54 0 0 0-8.66-.238c-3.084-.008-5.916.07-8.668.238-1.953.118-3.646.752-5.033 1.883-1.283 1.046-2.166 2.489-2.625 4.289-.456 1.785-.482 3.7-.507 5.553-.02 1.452-.04 3.171-.045 4.915.004 1.736.025 3.456.045 4.908.025 1.852.051 3.768.507 5.553.459 1.8 1.342 3.242 2.625 4.288 1.387 1.131 3.08 1.765 5.033 1.884 2.752.167 5.585.245 8.66.238zm-.074-7.109c-5.385 0-9.766-4.38-9.766-9.766 0-5.384 4.381-9.765 9.766-9.765s9.766 4.38 9.766 9.765c0 5.385-4.381 9.766-9.766 9.766zm0-16.406a6.648 6.648 0 0 0-6.64 6.64 6.647 6.647 0 0 0 6.64 6.641c3.662 0 6.64-2.98 6.64-6.64a6.648 6.648 0 0 0-6.64-6.641zm10.86-6.25a2.344 2.344 0 1 0 0 4.687 2.344 2.344 0 0 0 0-4.687z" fill="#fff"/></svg>