<svg width="196" height="53" viewBox="0 0 196 53" fill="none" xmlns="http://www.w3.org/2000/svg"><g clip-path="url(#a)" fill="#fff"><path d="M155.446 0H144.67a1.149 1.149 0 0 0-1.149 1.153V51.83A1.168 1.168 0 0 0 144.67 53h10.776a1.15 1.15 0 0 0 1.15-1.152V1.153A1.149 1.149 0 0 0 155.446 0zM1.994 0A2.008 2.008 0 0 0 .135 1.246a2.022 2.022 0 0 0 .436 2.198 2.01 2.01 0 0 0 3.434-1.427A2.02 2.02 0 0 0 3.416.591a2.009 2.009 0 0 0-1.422-.59zm0 14.695a2.007 2.007 0 0 0-1.86 1.25 2.022 2.022 0 0 0 .444 2.2 2.01 2.01 0 0 0 3.427-1.45 2.003 2.003 0 0 0-1.243-1.853 2.002 2.002 0 0 0-.768-.147zm0 4.899a2.007 2.007 0 0 0-1.86 1.25 2.022 2.022 0 0 0 .444 2.2 2.01 2.01 0 0 0 3.427-1.451 2.003 2.003 0 0 0-1.243-1.852c-.244-.1-.505-.15-.768-.147zM6.95 4.899a2.008 2.008 0 0 0-1.858 1.245 2.022 2.022 0 0 0 .436 2.198 2.01 2.01 0 0 0 3.434-1.426 2.022 2.022 0 0 0-1.241-1.864 2.007 2.007 0 0 0-.77-.153zm.001 9.796a2.007 2.007 0 0 0-1.86 1.25 2.022 2.022 0 0 0 .444 2.2 2.01 2.01 0 0 0 3.428-1.45 2.003 2.003 0 0 0-1.243-1.853 2.004 2.004 0 0 0-.769-.147zm0 9.797a2.008 2.008 0 0 0-1.86 1.25 2.022 2.022 0 0 0 .444 2.2 2.01 2.01 0 0 0 3.428-1.45 2.004 2.004 0 0 0-1.243-1.853c-.244-.1-.505-.15-.769-.147zm0 9.798a2.007 2.007 0 0 0-1.86 1.249 2.022 2.022 0 0 0 .444 2.2 2.01 2.01 0 0 0 3.428-1.45 2.003 2.003 0 0 0-1.243-1.852 1.99 1.99 0 0 0-.769-.147zm0 4.898a2.008 2.008 0 0 0-1.86 1.25 2.022 2.022 0 0 0 .444 2.2 2.01 2.01 0 0 0 3.428-1.45 2.004 2.004 0 0 0-1.243-1.853c-.244-.1-.505-.15-.769-.147zm-.001 9.778a2.008 2.008 0 0 0-1.858 1.245 2.022 2.022 0 0 0 .436 2.199 2.01 2.01 0 0 0 3.434-1.427 2.022 2.022 0 0 0-1.241-1.863 2.006 2.006 0 0 0-.77-.154zM11.764 0a2.008 2.008 0 0 0-1.858 1.246 2.022 2.022 0 0 0 .436 2.198 2.01 2.01 0 0 0 3.434-1.427 2.02 2.02 0 0 0-.59-1.426 2.009 2.009 0 0 0-1.421-.59zm0 9.798a2.007 2.007 0 0 0-1.858 1.245 2.022 2.022 0 0 0 .436 2.198 2.01 2.01 0 0 0 3.434-1.426 2.02 2.02 0 0 0-.59-1.426 2.008 2.008 0 0 0-1.421-.591zm0 4.897a2.007 2.007 0 0 0-1.86 1.25 2.022 2.022 0 0 0 .444 2.2 2.01 2.01 0 0 0 3.428-1.45 2.004 2.004 0 0 0-1.243-1.853 2.007 2.007 0 0 0-.769-.147zm0 4.899a2.007 2.007 0 0 0-1.86 1.25 2.022 2.022 0 0 0 .444 2.2 2.01 2.01 0 0 0 3.428-1.451 2.004 2.004 0 0 0-1.243-1.852 1.97 1.97 0 0 0-.769-.147zm0 4.898a2.007 2.007 0 0 0-1.86 1.25 2.022 2.022 0 0 0 .444 2.2 2.01 2.01 0 0 0 3.428-1.45 2.004 2.004 0 0 0-1.243-1.853 1.97 1.97 0 0 0-.769-.147zm0 4.898a2.007 2.007 0 0 0-1.86 1.25 2.022 2.022 0 0 0 .444 2.2 2.01 2.01 0 0 0 3.428-1.45 2.004 2.004 0 0 0-1.243-1.852 1.97 1.97 0 0 0-.769-.147zm0 14.696a2.007 2.007 0 0 0-1.86 1.25 2.022 2.022 0 0 0 .444 2.2 2.01 2.01 0 0 0 3.428-1.451 2.004 2.004 0 0 0-1.243-1.852 1.97 1.97 0 0 0-.769-.147zM16.65 4.899a2.008 2.008 0 0 0-1.858 1.245 2.022 2.022 0 0 0 .436 2.198 2.01 2.01 0 0 0 3.434-1.426 2.02 2.02 0 0 0-.59-1.426 2.009 2.009 0 0 0-1.422-.591zm0 4.899a2.007 2.007 0 0 0-1.858 1.245 2.022 2.022 0 0 0 .436 2.198 2.01 2.01 0 0 0 3.434-1.426 2.02 2.02 0 0 0-.59-1.426 2.009 2.009 0 0 0-1.422-.591zm0 4.897a2.007 2.007 0 0 0-1.86 1.25 2.022 2.022 0 0 0 .444 2.2 2.01 2.01 0 0 0 3.427-1.45 2.004 2.004 0 0 0-1.243-1.853 2.002 2.002 0 0 0-.768-.147zm0 14.695a2.008 2.008 0 0 0-1.86 1.25 2.022 2.022 0 0 0 .444 2.2 2.01 2.01 0 0 0 3.427-1.45 2.004 2.004 0 0 0-1.243-1.852c-.244-.1-.505-.15-.768-.147zm0 19.576a2.008 2.008 0 0 0-1.858 1.245 2.022 2.022 0 0 0 .436 2.199 2.01 2.01 0 0 0 3.434-1.427 2.02 2.02 0 0 0-.59-1.426 2.009 2.009 0 0 0-1.422-.59zM21.535 0a2.008 2.008 0 0 0-1.859 1.246 2.023 2.023 0 0 0 .436 2.198 2.01 2.01 0 0 0 3.434-1.427 2.02 2.02 0 0 0-.589-1.426 2.009 2.009 0 0 0-1.422-.59zm0 4.899a2.008 2.008 0 0 0-1.859 1.245 2.023 2.023 0 0 0 .436 2.198 2.01 2.01 0 0 0 3.434-1.426 2.02 2.02 0 0 0-.589-1.426 2.009 2.009 0 0 0-1.422-.591zm0 9.797a2.007 2.007 0 0 0-1.86 1.25 2.022 2.022 0 0 0 .444 2.2 2.01 2.01 0 0 0 3.427-1.451 2.019 2.019 0 0 0-.595-1.415 2.009 2.009 0 0 0-1.416-.584zm0 4.898a2.008 2.008 0 0 0-1.86 1.25 2.022 2.022 0 0 0 .444 2.2 2.01 2.01 0 0 0 3.427-1.45 2.019 2.019 0 0 0-.595-1.415 2.009 2.009 0 0 0-1.416-.585zm0 9.796a2.007 2.007 0 0 0-1.86 1.25 2.022 2.022 0 0 0 .444 2.2 2.01 2.01 0 0 0 3.427-1.45 2.019 2.019 0 0 0-.595-1.415 2.009 2.009 0 0 0-1.416-.584zm0 9.798a2.007 2.007 0 0 0-1.86 1.25 2.022 2.022 0 0 0 .444 2.2 2.01 2.01 0 0 0 3.427-1.451 2.02 2.02 0 0 0-.595-1.415 2.009 2.009 0 0 0-1.416-.584zm0 4.898a2.008 2.008 0 0 0-1.86 1.25 2.022 2.022 0 0 0 .444 2.2 2.01 2.01 0 0 0 3.427-1.451 2.02 2.02 0 0 0-.595-1.415 2.009 2.009 0 0 0-1.416-.584zM26.42 0a2.008 2.008 0 0 0-1.858 1.246 2.023 2.023 0 0 0 .436 2.198 2.01 2.01 0 0 0 3.434-1.426 2.004 2.004 0 0 0-1.24-1.869 1.988 1.988 0 0 0-.772-.148zm0 9.798a2.007 2.007 0 0 0-1.858 1.245 2.023 2.023 0 0 0 .436 2.198 2.01 2.01 0 0 0 3.434-1.426 2.005 2.005 0 0 0-1.24-1.868 1.989 1.989 0 0 0-.772-.15zm0 9.796a2.007 2.007 0 0 0-1.86 1.25 2.022 2.022 0 0 0 .444 2.2 2.01 2.01 0 0 0 3.428-1.451 2.004 2.004 0 0 0-1.243-1.852 1.97 1.97 0 0 0-.769-.147zm0 4.898a2.007 2.007 0 0 0-1.86 1.25 2.022 2.022 0 0 0 .444 2.2 2.01 2.01 0 0 0 3.428-1.45 2.004 2.004 0 0 0-1.243-1.853 1.97 1.97 0 0 0-.769-.147zm0 4.898a2.007 2.007 0 0 0-1.86 1.25 2.022 2.022 0 0 0 .444 2.2 2.01 2.01 0 0 0 3.428-1.45 2.004 2.004 0 0 0-1.243-1.852 1.97 1.97 0 0 0-.769-.147zm0 4.9a2.007 2.007 0 0 0-1.86 1.249 2.022 2.022 0 0 0 .444 2.2 2.01 2.01 0 0 0 3.428-1.45 2.004 2.004 0 0 0-1.243-1.852 1.99 1.99 0 0 0-.769-.147zm0 9.796a2.007 2.007 0 0 0-1.86 1.25 2.022 2.022 0 0 0 .444 2.2 2.01 2.01 0 0 0 3.428-1.451 2.004 2.004 0 0 0-1.243-1.852 1.97 1.97 0 0 0-.769-.147zm0 4.881a2.008 2.008 0 0 0-1.812 1.31 2.023 2.023 0 0 0 .514 2.181 2.01 2.01 0 0 0 3.381-1.547 2.02 2.02 0 0 0-.589-1.426 2.009 2.009 0 0 0-1.422-.59M31.305 0a2.007 2.007 0 0 0-1.87 1.233 2.022 2.022 0 0 0 .424 2.204 2.01 2.01 0 0 0 3.44-1.42 2.02 2.02 0 0 0-.583-1.42 2.009 2.009 0 0 0-1.41-.596zm0 4.899a2.007 2.007 0 0 0-1.87 1.232 2.022 2.022 0 0 0 .424 2.204 2.01 2.01 0 0 0 3.44-1.42 2.02 2.02 0 0 0-.583-1.42 2.008 2.008 0 0 0-1.41-.596zm0 9.796a2.007 2.007 0 0 0-1.873 1.237 2.022 2.022 0 0 0 .433 2.207 2.01 2.01 0 0 0 3.434-1.445 2.02 2.02 0 0 0-.59-1.408 2.009 2.009 0 0 0-1.404-.59zm0 9.797a2.008 2.008 0 0 0-1.873 1.237 2.022 2.022 0 0 0 .433 2.206 2.009 2.009 0 0 0 3.434-1.444 2.02 2.02 0 0 0-.59-1.408 2.009 2.009 0 0 0-1.404-.59zm0 9.798a2.008 2.008 0 0 0-1.873 1.236 2.022 2.022 0 0 0 .433 2.207 2.01 2.01 0 0 0 3.434-1.444 2.02 2.02 0 0 0-.59-1.409 2.009 2.009 0 0 0-1.404-.59zm0 4.898a2.008 2.008 0 0 0-1.873 1.237 2.022 2.022 0 0 0 .433 2.206 2.009 2.009 0 0 0 3.434-1.444 2.02 2.02 0 0 0-.59-1.408 2.009 2.009 0 0 0-1.404-.59zm0 4.898a2.008 2.008 0 0 0-1.873 1.237 2.022 2.022 0 0 0 .433 2.206 2.01 2.01 0 0 0 3.434-1.444 2.02 2.02 0 0 0-.59-1.408 2.009 2.009 0 0 0-1.404-.591zm0 4.88c-.534 0-1.045.213-1.422.591A2.02 2.02 0 0 0 31.305 53c.534 0 1.045-.212 1.422-.59a2.02 2.02 0 0 0-1.422-3.444zM36.19 0a2.007 2.007 0 0 0-1.871 1.233 2.022 2.022 0 0 0 .424 2.204 2.01 2.01 0 0 0 3.44-1.42 2.02 2.02 0 0 0-.582-1.42A2.009 2.009 0 0 0 36.19.002zm0 24.492a2.008 2.008 0 0 0-1.872 1.237 2.022 2.022 0 0 0 .433 2.206 2.009 2.009 0 0 0 3.433-1.444 2.02 2.02 0 0 0-.589-1.408 2.009 2.009 0 0 0-1.404-.59zm0 4.898a2.008 2.008 0 0 0-1.872 1.238 2.022 2.022 0 0 0 .433 2.206 2.01 2.01 0 0 0 3.433-1.444 2.02 2.02 0 0 0-.589-1.409 2.009 2.009 0 0 0-1.404-.59zm0 4.9a2.008 2.008 0 0 0-1.872 1.236 2.022 2.022 0 0 0 .433 2.207 2.01 2.01 0 0 0 3.433-1.444 2.02 2.02 0 0 0-.589-1.409 2.009 2.009 0 0 0-1.404-.59zm0 4.898a2.008 2.008 0 0 0-1.872 1.237 2.022 2.022 0 0 0 .433 2.206 2.009 2.009 0 0 0 3.433-1.444 2.02 2.02 0 0 0-.589-1.408 2.009 2.009 0 0 0-1.404-.59zm0 4.898a2.008 2.008 0 0 0-1.872 1.237 2.022 2.022 0 0 0 .433 2.206 2.01 2.01 0 0 0 3.433-1.444 2.02 2.02 0 0 0-.589-1.408 2.009 2.009 0 0 0-1.404-.591zm0 4.88a2.01 2.01 0 0 0-1.422.591A2.02 2.02 0 0 0 36.19 53a2.01 2.01 0 0 0 1.423-.59 2.02 2.02 0 0 0-1.422-3.444zm4.886-39.168a2.007 2.007 0 0 0-1.871 1.232 2.023 2.023 0 0 0 .424 2.205 2.01 2.01 0 0 0 3.44-1.42 2.02 2.02 0 0 0-.583-1.42 2.01 2.01 0 0 0-1.41-.597zm0 4.897a2.007 2.007 0 0 0-1.873 1.237 2.022 2.022 0 0 0 .432 2.207 2.01 2.01 0 0 0 3.434-1.445 2.02 2.02 0 0 0-.589-1.408 2.01 2.01 0 0 0-1.404-.59zm0 4.899a2.008 2.008 0 0 0-1.873 1.237 2.022 2.022 0 0 0 .432 2.206 2.01 2.01 0 0 0 3.434-1.444 2.02 2.02 0 0 0-.589-1.409 2.01 2.01 0 0 0-1.404-.59zm0 4.898a2.008 2.008 0 0 0-1.873 1.237 2.022 2.022 0 0 0 .432 2.206 2.01 2.01 0 0 0 3.434-1.444 2.02 2.02 0 0 0-.589-1.408 2.009 2.009 0 0 0-1.404-.59zm0 4.898a2.008 2.008 0 0 0-1.873 1.238 2.022 2.022 0 0 0 .432 2.206 2.01 2.01 0 0 0 3.434-1.444 2.02 2.02 0 0 0-.589-1.409 2.009 2.009 0 0 0-1.404-.59zm0 4.9a2.008 2.008 0 0 0-1.873 1.236 2.022 2.022 0 0 0 .432 2.207 2.01 2.01 0 0 0 3.434-1.444 2.02 2.02 0 0 0-.589-1.409 2.01 2.01 0 0 0-1.404-.59zm0 4.898a2.008 2.008 0 0 0-1.873 1.237 2.022 2.022 0 0 0 .432 2.206 2.01 2.01 0 0 0 3.434-1.444 2.02 2.02 0 0 0-.589-1.408 2.009 2.009 0 0 0-1.404-.59zm0 4.898a2.008 2.008 0 0 0-1.873 1.237 2.022 2.022 0 0 0 .432 2.206 2.01 2.01 0 0 0 2.2.434 2.012 2.012 0 0 0 1.234-1.878 2.02 2.02 0 0 0-.589-1.408 2.009 2.009 0 0 0-1.404-.591zm0 4.88a2.008 2.008 0 0 0-1.871 1.233 2.023 2.023 0 0 0 .424 2.204 2.01 2.01 0 0 0 3.44-1.42 2.02 2.02 0 0 0-.583-1.42 2.009 2.009 0 0 0-1.41-.597zM45.961 0a2.008 2.008 0 0 0-1.871 1.233 2.023 2.023 0 0 0 .424 2.204 2.01 2.01 0 0 0 3.44-1.42 2.02 2.02 0 0 0-.582-1.42 2.009 2.009 0 0 0-1.41-.596zm0 4.899A2.008 2.008 0 0 0 44.09 6.13a2.023 2.023 0 0 0 .424 2.204 2.01 2.01 0 0 0 3.44-1.42 2.02 2.02 0 0 0-.582-1.42 2.009 2.009 0 0 0-1.41-.596zm0 4.899a2.007 2.007 0 0 0-1.871 1.232 2.023 2.023 0 0 0 .424 2.205 2.01 2.01 0 0 0 3.44-1.42 2.02 2.02 0 0 0-.582-1.42 2.01 2.01 0 0 0-1.41-.597zm0 4.897a2.007 2.007 0 0 0-1.873 1.237 2.022 2.022 0 0 0 .433 2.207 2.01 2.01 0 0 0 3.434-1.445 2.02 2.02 0 0 0-.59-1.408 2.01 2.01 0 0 0-1.404-.59zm0 4.899a2.008 2.008 0 0 0-1.873 1.237 2.022 2.022 0 0 0 .433 2.206 2.01 2.01 0 0 0 3.434-1.444 2.02 2.02 0 0 0-.59-1.409 2.01 2.01 0 0 0-1.404-.59zm0 4.898a2.008 2.008 0 0 0-1.873 1.237 2.022 2.022 0 0 0 .433 2.206 2.01 2.01 0 0 0 3.434-1.444 2.02 2.02 0 0 0-.59-1.408 2.009 2.009 0 0 0-1.404-.59zm0 4.898a2.008 2.008 0 0 0-1.873 1.238 2.022 2.022 0 0 0 .433 2.206 2.01 2.01 0 0 0 3.434-1.444 2.02 2.02 0 0 0-.59-1.409 2.009 2.009 0 0 0-1.404-.59zm0 4.9a2.008 2.008 0 0 0-1.873 1.236 2.022 2.022 0 0 0 .433 2.207 2.01 2.01 0 0 0 3.434-1.444 2.02 2.02 0 0 0-.59-1.409 2.01 2.01 0 0 0-1.404-.59zm0 4.898a2.008 2.008 0 0 0-1.873 1.237 2.022 2.022 0 0 0 .433 2.206 2.01 2.01 0 0 0 3.434-1.444 2.02 2.02 0 0 0-.59-1.408 2.009 2.009 0 0 0-1.404-.59zM50.846 0a2.008 2.008 0 0 0-1.871 1.233 2.022 2.022 0 0 0 .424 2.204 2.01 2.01 0 0 0 3.44-1.42 2.02 2.02 0 0 0-.582-1.42 2.009 2.009 0 0 0-1.411-.596zm0 4.899a2.008 2.008 0 0 0-1.871 1.232 2.022 2.022 0 0 0 .424 2.204 2.01 2.01 0 0 0 3.44-1.42 2.02 2.02 0 0 0-.582-1.42 2.009 2.009 0 0 0-1.411-.596zm0 4.899a2.007 2.007 0 0 0-1.871 1.232 2.022 2.022 0 0 0 .424 2.205 2.01 2.01 0 0 0 3.44-1.42 2.02 2.02 0 0 0-.582-1.42 2.01 2.01 0 0 0-1.411-.597zm0 4.897a2.007 2.007 0 0 0-1.873 1.237 2.021 2.021 0 0 0 .433 2.207 2.01 2.01 0 0 0 3.433-1.445 2.02 2.02 0 0 0-.589-1.408 2.009 2.009 0 0 0-1.404-.59zm0 4.899a2.008 2.008 0 0 0-1.873 1.237 2.021 2.021 0 0 0 .433 2.206 2.01 2.01 0 0 0 3.433-1.444 2.02 2.02 0 0 0-.589-1.409 2.009 2.009 0 0 0-1.404-.59zm0 14.696a2.008 2.008 0 0 0-1.873 1.236 2.021 2.021 0 0 0 .433 2.207 2.01 2.01 0 0 0 3.433-1.444 2.02 2.02 0 0 0-.589-1.409 2.009 2.009 0 0 0-1.404-.59zm0 4.898a2.008 2.008 0 0 0-1.873 1.237 2.021 2.021 0 0 0 1.467 2.76 2.006 2.006 0 0 0 2.068-.87 2.021 2.021 0 0 0-.258-2.536 2.009 2.009 0 0 0-1.404-.59zm4.885-4.898a2.008 2.008 0 0 0-1.873 1.236 2.021 2.021 0 0 0 .433 2.207 2.01 2.01 0 0 0 3.434-1.444 2.02 2.02 0 0 0-.59-1.409 2.009 2.009 0 0 0-1.404-.59zm0 4.898a2.008 2.008 0 0 0-1.873 1.237 2.021 2.021 0 0 0 1.467 2.76 2.006 2.006 0 0 0 2.068-.87 2.021 2.021 0 0 0-.257-2.536 2.009 2.009 0 0 0-1.405-.59zm4.885-4.898a2.008 2.008 0 0 0-1.873 1.236 2.022 2.022 0 0 0 .433 2.207 2.01 2.01 0 0 0 3.434-1.444 2.02 2.02 0 0 0-.59-1.409 2.009 2.009 0 0 0-1.404-.59zm0 4.898a2.007 2.007 0 0 0-1.86 1.25 2.022 2.022 0 0 0 .444 2.2 2.01 2.01 0 0 0 3.428-1.451 2.02 2.02 0 0 0-.596-1.415 2.009 2.009 0 0 0-1.416-.584zm4.886 0a2.008 2.008 0 0 0-1.873 1.237 2.022 2.022 0 0 0 .432 2.206 2.01 2.01 0 0 0 3.434-1.444 2.019 2.019 0 0 0-.589-1.408 2.009 2.009 0 0 0-1.404-.59z"/><path d="M65.806 2.288A3.996 3.996 0 0 0 61.91.055h-6.178c-.534 0-1.045.212-1.423.59a2.02 2.02 0 0 0-.589 1.427v.432a2 2 0 0 0 3.21 1.126 2.02 2.02 0 0 0 .706-1.126v.432a2.038 2.038 0 0 1-1.258 1.801 3.243 3.243 0 0 1-.736.144 2.073 2.073 0 0 0-2.012 2.017v.432a2 2 0 0 0 3.21 1.127c.355-.285.604-.682.706-1.127v.433a2.038 2.038 0 0 1-1.258 1.8c-.237.082-.485.13-.736.145a2.044 2.044 0 0 0-1.412.6c-.375.377-.59.885-.6 1.417a2.003 2.003 0 0 0 1.07 1.764 1.988 1.988 0 0 0 2.056-.126l.215.109c.772 1.908 7.346 18.008 8.316 20.314 0 .216 0 .306-.162.36a2.118 2.118 0 0 0-1.796 2.053 2.022 2.022 0 0 0 .64 1.584 2.01 2.01 0 0 0 1.623.523 1.954 1.954 0 0 0 1.15-.378c.18-.108.323 0 .395 0l5.172 12.606c.197.69.615 1.297 1.19 1.727.573.43 1.273.658 1.99.65h10.129a1.11 1.11 0 0 0 1.226-1.056 1.119 1.119 0 0 0-.13-.583L65.805 2.288zm129.817 48.479c-.934-1.062-21.229-25.5-21.229-25.5S192.229 4.07 193.181 3.026a3.133 3.133 0 0 0 1.095-1.945c0-.774-.575-1.08-1.329-1.08h-9.986a3.44 3.44 0 0 0-3.161 1.386c-1.077 1.207-20.708 24.798-20.708 24.798s19.433 23.646 20.726 25.213a3.583 3.583 0 0 0 3.592 1.693h11.333a1.22 1.22 0 0 0 1.239-1.153 1.511 1.511 0 0 0-.359-1.17zm-61.155-7.906h-25.323V1.154A1.172 1.172 0 0 0 107.977 0H93.609a1.148 1.148 0 0 0-1.15 1.153v6.825a1.172 1.172 0 0 0 1.15 1.17h2.443V51.83A1.173 1.173 0 0 0 97.2 53h37.267a1.147 1.147 0 0 0 1.15-1.152v-7.834a1.153 1.153 0 0 0-1.15-1.153z"/></g><defs><clipPath id="a"><path fill="#fff" d="M0 0h196v53H0z"/></clipPath></defs></svg>