<svg width="40" height="30" viewBox="0 0 40 30" fill="none" xmlns="http://www.w3.org/2000/svg"><path d="M19.999 29.53h-.011c-1.207-.008-11.877-.105-14.9-.922a6.182 6.182 0 0 1-4.35-4.347c-.791-2.97-.741-8.688-.735-9.144-.006-.455-.057-6.22.732-9.213l.003-.009C1.3 3.806 3.006 2.09 5.082 1.52l.016-.004c2.99-.786 13.68-.882 14.89-.89h.022c1.21.008 11.908.106 14.903.924a6.181 6.181 0 0 1 4.345 4.34c.82 2.997.745 8.774.737 9.262.006.48.053 6.147-.733 9.131l-.002.009a6.184 6.184 0 0 1-4.353 4.347l-.008.003c-2.989.785-13.68.881-14.89.89H20zM3.756 6.706c-.695 2.643-.63 8.334-.628 8.392v.04c-.021 1.579.052 6.15.628 8.315a3.047 3.047 0 0 0 2.145 2.138c2.23.604 10.921.793 14.098.816 3.184-.023 11.887-.207 14.101-.787a3.049 3.049 0 0 0 2.141-2.137c.577-2.197.65-6.745.629-8.314v-.05c.029-1.597-.028-6.22-.626-8.403a3.05 3.05 0 0 0-2.148-2.15c-2.209-.604-10.913-.793-14.097-.815-3.183.022-11.878.207-14.098.785a3.134 3.134 0 0 0-2.145 2.17zm33.995 17.18zm-21.735-2.48V8.75l10.937 6.328-10.937 6.328z" fill="#fff"/></svg>