<svg width="121" height="140" viewBox="0 0 121 140" fill="none" xmlns="http://www.w3.org/2000/svg">
<path opacity="0.2" d="M76.205 40.3324C76.205 48.8643 65.7341 54.2936 50.9972 54.2936H38.5873V81.8283H51.1911C68.0609 81.8283 80.6648 86.482 80.6648 97.5346C80.6648 106.066 71.1634 111.108 56.0388 111.108C43.6288 111.108 29.4737 106.26 19.5845 96.9529L0 110.72C13.9612 129.335 36.8421 140 59.1413 140C97.9224 140 120.028 122.355 120.028 99.0859C120.028 83.3795 110.332 72.7147 92.4931 66.8975C106.066 61.6621 114.792 51.385 114.792 37.4238C114.792 14.9308 91.3296 0 60.1108 0C25.7895 0 3.4903 17.0637 2.90859 43.241H38.0055C38.3934 34.3213 46.9252 29.2798 58.3657 29.2798C69.6122 29.2798 76.205 33.9335 76.205 40.3324Z" fill="white"/>
</svg>
