<svg width="196" height="53" viewBox="0 0 196 53" fill="none" xmlns="http://www.w3.org/2000/svg">
<g clip-path="url(#clip0_1398_9999)">
<path d="M155.446 0.00390625H144.67C144.365 0.00390625 144.073 0.125314 143.857 0.341462C143.642 0.55761 143.521 0.850764 143.521 1.15644V51.8333C143.52 52.1407 143.641 52.4357 143.856 52.6547C144.071 52.8738 144.363 52.9992 144.67 53.0039H155.446C155.751 53.0039 156.043 52.8824 156.259 52.6663C156.474 52.4501 156.596 52.157 156.596 51.8513V1.15644C156.596 0.850764 156.474 0.55761 156.259 0.341462C156.043 0.125314 155.751 0.00390625 155.446 0.00390625Z" fill="white"/>
<path d="M1.99373 0.00390625C1.59588 0.00390625 1.20697 0.122196 0.876171 0.343825C0.545374 0.565455 0.28755 0.880437 0.1353 1.24899C-0.0169487 1.61755 -0.0567867 2.02313 0.0208292 2.41439C0.0984452 2.80565 0.290024 3.16504 0.571344 3.44712C0.852663 3.7292 1.21108 3.9213 1.60128 3.99912C1.99149 4.07695 2.39595 4.03697 2.76351 3.88431C3.13107 3.73165 3.44523 3.47313 3.66626 3.14144C3.88729 2.80975 4.00526 2.41981 4.00526 2.02089C4.00526 1.48595 3.79334 0.972915 3.41611 0.594656C3.03887 0.216397 2.52722 0.00390625 1.99373 0.00390625Z" fill="white"/>
<path d="M1.99366 14.6954C1.59505 14.6954 1.20542 14.8141 0.874244 15.0366C0.543069 15.259 0.285273 15.5751 0.133565 15.9447C-0.0181417 16.3143 -0.0569192 16.7208 0.0221636 17.1125C0.101246 17.5043 0.294629 17.8636 0.577748 18.145C0.860867 18.4263 1.22097 18.617 1.61235 18.6928C2.00372 18.7685 2.40874 18.726 2.77597 18.5706C3.1432 18.4152 3.45611 18.1538 3.67497 17.8198C3.89382 17.4857 4.00876 17.094 4.0052 16.6943C4.00521 16.4303 3.95307 16.1689 3.85176 15.9252C3.75045 15.6815 3.60198 15.4603 3.41495 15.2744C3.22792 15.0886 3.00602 14.9417 2.76207 14.8424C2.51813 14.743 2.25697 14.693 1.99366 14.6954Z" fill="white"/>
<path d="M1.99366 19.5938C1.59505 19.5938 1.20542 19.7126 0.874244 19.9351C0.543069 20.1575 0.285273 20.4736 0.133565 20.8432C-0.0181417 21.2128 -0.0569192 21.6193 0.0221636 22.011C0.101246 22.4028 0.294629 22.7621 0.577748 23.0435C0.860867 23.3248 1.22097 23.5155 1.61235 23.5912C2.00372 23.667 2.40874 23.6245 2.77597 23.4691C3.1432 23.3136 3.45611 23.0523 3.67497 22.7183C3.89382 22.3842 4.00876 21.9925 4.0052 21.5928C4.00521 21.3288 3.95307 21.0674 3.85176 20.8237C3.75045 20.58 3.60198 20.3588 3.41495 20.1729C3.22792 19.9871 3.00602 19.8402 2.76207 19.7408C2.51813 19.6415 2.25697 19.5915 1.99366 19.5938Z" fill="white"/>
<path d="M6.95076 4.90234C6.55291 4.90234 6.164 5.02063 5.8332 5.24226C5.5024 5.46389 5.24458 5.77887 5.09233 6.14743C4.94008 6.51599 4.90024 6.92157 4.97786 7.31283C5.05548 7.70409 5.24705 8.06347 5.52837 8.34556C5.80969 8.62764 6.16811 8.81973 6.55831 8.89756C6.94852 8.97539 7.35298 8.93541 7.72054 8.78275C8.0881 8.63009 8.40226 8.37157 8.62329 8.03988C8.84432 7.70818 8.96229 7.31825 8.96229 6.91932C8.96229 6.65445 8.91027 6.39214 8.80918 6.14743C8.70809 5.90272 8.55993 5.68039 8.37314 5.49309C8.18635 5.3058 7.96459 5.15721 7.72054 5.05584C7.47649 4.95448 7.21492 4.90234 6.95076 4.90234Z" fill="white"/>
<path d="M6.9514 14.6954C6.55279 14.6954 6.16318 14.8141 5.83201 15.0366C5.50083 15.259 5.24304 15.5751 5.09133 15.9447C4.93962 16.3143 4.90084 16.7208 4.97993 17.1125C5.05901 17.5043 5.25236 17.8636 5.53548 18.145C5.8186 18.4263 6.1787 18.617 6.57008 18.6928C6.96146 18.7685 7.36647 18.726 7.7337 18.5706C8.10094 18.4152 8.41385 18.1538 8.6327 17.8198C8.85156 17.4857 8.96649 17.094 8.96293 16.6943C8.96294 16.4303 8.9108 16.1689 8.80949 15.9252C8.70818 15.6815 8.55974 15.4603 8.37271 15.2744C8.18568 15.0886 7.96379 14.9417 7.71984 14.8424C7.47589 14.743 7.21471 14.693 6.9514 14.6954Z" fill="white"/>
<path d="M6.9514 24.4923C6.55279 24.4923 6.16318 24.6111 5.83201 24.8335C5.50083 25.0559 5.24304 25.372 5.09133 25.7416C4.93962 26.1112 4.90084 26.5177 4.97993 26.9095C5.05901 27.3012 5.25236 27.6606 5.53548 27.9419C5.8186 28.2233 6.1787 28.4139 6.57008 28.4897C6.96146 28.5655 7.36647 28.5229 7.7337 28.3675C8.10094 28.2121 8.41385 27.9508 8.6327 27.6167C8.85156 27.2827 8.96649 26.8909 8.96293 26.4913C8.96294 26.2272 8.9108 25.9658 8.80949 25.7221C8.70818 25.4784 8.55974 25.2572 8.37271 25.0714C8.18568 24.8855 7.96379 24.7387 7.71984 24.6393C7.47589 24.5399 7.21471 24.4899 6.9514 24.4923Z" fill="white"/>
<path d="M6.9514 34.2891C6.55279 34.2892 6.16318 34.4079 5.83201 34.6304C5.50083 34.8528 5.24304 35.1689 5.09133 35.5385C4.93962 35.9081 4.90084 36.3146 4.97993 36.7063C5.05901 37.0981 5.25236 37.4574 5.53548 37.7388C5.8186 38.0201 6.1787 38.2108 6.57008 38.2866C6.96146 38.3623 7.36647 38.3198 7.7337 38.1644C8.10094 38.009 8.41385 37.7476 8.6327 37.4136C8.85156 37.0795 8.96649 36.6878 8.96293 36.2882C8.96294 36.0241 8.9108 35.7627 8.80949 35.519C8.70818 35.2753 8.55974 35.0541 8.37271 34.8682C8.18568 34.6824 7.96379 34.5355 7.71984 34.4361C7.47589 34.3367 7.21471 34.2868 6.9514 34.2891Z" fill="white"/>
<path d="M6.9514 39.1915C6.55279 39.1915 6.16318 39.3103 5.83201 39.5327C5.50083 39.7552 5.24304 40.0713 5.09133 40.4409C4.93962 40.8105 4.90084 41.2169 4.97993 41.6087C5.05901 42.0004 5.25236 42.3598 5.53548 42.6411C5.8186 42.9225 6.1787 43.1131 6.57008 43.1889C6.96146 43.2647 7.36647 43.2221 7.7337 43.0667C8.10094 42.9113 8.41385 42.65 8.6327 42.3159C8.85156 41.9819 8.96649 41.5902 8.96293 41.1905C8.96294 40.9265 8.9108 40.6651 8.80949 40.4213C8.70818 40.1776 8.55974 39.9564 8.37271 39.7706C8.18568 39.5847 7.96379 39.4378 7.71984 39.3384C7.47589 39.2391 7.21471 39.1891 6.9514 39.1915Z" fill="white"/>
<path d="M6.95076 48.9688C6.55291 48.9688 6.164 49.087 5.8332 49.3087C5.5024 49.5303 5.24458 49.8453 5.09233 50.2138C4.94008 50.5824 4.90024 50.988 4.97786 51.3792C5.05548 51.7705 5.24705 52.1299 5.52837 52.412C5.80969 52.694 6.16811 52.8861 6.55831 52.964C6.94852 53.0418 7.35298 53.0018 7.72054 52.8492C8.0881 52.6965 8.40226 52.438 8.62329 52.1063C8.84432 51.7746 8.96229 51.3847 8.96229 50.9857C8.96229 50.7209 8.91027 50.4585 8.80918 50.2138C8.70809 49.9691 8.55993 49.7468 8.37314 49.5595C8.18635 49.3722 7.96459 49.2236 7.72054 49.1222C7.47649 49.0209 7.21492 48.9688 6.95076 48.9688Z" fill="white"/>
<path d="M11.7645 0.00390625C11.3666 0.00390625 10.9777 0.122196 10.6469 0.343825C10.3161 0.565455 10.0583 0.880437 9.90603 1.24899C9.75378 1.61755 9.71397 2.02313 9.79159 2.41439C9.8692 2.80565 10.0608 3.16504 10.3421 3.44712C10.6234 3.7292 10.9818 3.9213 11.372 3.99912C11.7622 4.07695 12.1667 4.03697 12.5343 3.88431C12.9018 3.73165 13.216 3.47313 13.437 3.14144C13.6581 2.80975 13.776 2.41981 13.776 2.02089C13.776 1.48595 13.5641 0.972915 13.1868 0.594656C12.8096 0.216397 12.298 0.00390625 11.7645 0.00390625Z" fill="white"/>
<path d="M11.7645 9.80078C11.3666 9.80078 10.9777 9.91907 10.6469 10.1407C10.3161 10.3623 10.0583 10.6773 9.90603 11.0459C9.75378 11.4144 9.71397 11.82 9.79159 12.2113C9.8692 12.6025 10.0608 12.9619 10.3421 13.244C10.6234 13.5261 10.9818 13.7182 11.372 13.796C11.7622 13.8738 12.1667 13.8339 12.5343 13.6812C12.9018 13.5285 13.216 13.27 13.437 12.9383C13.6581 12.6066 13.776 12.2167 13.776 11.8178C13.776 11.2828 13.5641 10.7698 13.1868 10.3915C12.8096 10.0133 12.298 9.80078 11.7645 9.80078Z" fill="white"/>
<path d="M11.7641 14.6954C11.3655 14.6954 10.9759 14.8141 10.6448 15.0366C10.3136 15.259 10.0558 15.5751 9.90407 15.9447C9.75237 16.3143 9.71359 16.7208 9.79267 17.1125C9.87175 17.5043 10.0651 17.8636 10.3483 18.145C10.6314 18.4263 10.9915 18.617 11.3829 18.6928C11.7742 18.7685 12.1792 18.726 12.5465 18.5706C12.9137 18.4152 13.2266 18.1538 13.4454 17.8198C13.6643 17.4857 13.7793 17.094 13.7757 16.6943C13.7757 16.4303 13.7235 16.1689 13.6222 15.9252C13.5209 15.6815 13.3725 15.4603 13.1855 15.2744C12.9984 15.0886 12.7765 14.9417 12.5326 14.8424C12.2886 14.743 12.0274 14.693 11.7641 14.6954Z" fill="white"/>
<path d="M11.7641 19.5938C11.3655 19.5938 10.9759 19.7126 10.6448 19.9351C10.3136 20.1575 10.0558 20.4736 9.90407 20.8432C9.75237 21.2128 9.71359 21.6193 9.79267 22.011C9.87175 22.4028 10.0651 22.7621 10.3483 23.0435C10.6314 23.3248 10.9915 23.5155 11.3829 23.5912C11.7742 23.667 12.1792 23.6245 12.5465 23.4691C12.9137 23.3136 13.2266 23.0523 13.4454 22.7183C13.6643 22.3842 13.7793 21.9925 13.7757 21.5928C13.7757 21.3288 13.7235 21.0674 13.6222 20.8237C13.5209 20.58 13.3725 20.3588 13.1855 20.1729C12.9984 19.9871 12.7765 19.8402 12.5326 19.7408C12.2886 19.6415 12.0274 19.5915 11.7641 19.5938Z" fill="white"/>
<path d="M11.7641 24.4923C11.3655 24.4923 10.9759 24.6111 10.6448 24.8335C10.3136 25.0559 10.0558 25.372 9.90407 25.7416C9.75237 26.1112 9.71359 26.5177 9.79267 26.9095C9.87175 27.3012 10.0651 27.6606 10.3483 27.9419C10.6314 28.2233 10.9915 28.4139 11.3829 28.4897C11.7742 28.5655 12.1792 28.5229 12.5465 28.3675C12.9137 28.2121 13.2266 27.9508 13.4454 27.6167C13.6643 27.2827 13.7793 26.8909 13.7757 26.4913C13.7757 26.2272 13.7235 25.9658 13.6222 25.7221C13.5209 25.4784 13.3725 25.2572 13.1855 25.0714C12.9984 24.8855 12.7765 24.7387 12.5326 24.6393C12.2886 24.5399 12.0274 24.4899 11.7641 24.4923Z" fill="white"/>
<path d="M11.7641 29.3907C11.3655 29.3907 10.9759 29.5095 10.6448 29.7319C10.3136 29.9544 10.0558 30.2705 9.90407 30.6401C9.75237 31.0097 9.71359 31.4162 9.79267 31.8079C9.87175 32.1996 10.0651 32.559 10.3483 32.8403C10.6314 33.1217 10.9915 33.3123 11.3829 33.3881C11.7742 33.4639 12.1792 33.4214 12.5465 33.2659C12.9137 33.1105 13.2266 32.8492 13.4454 32.5152C13.6643 32.1811 13.7793 31.7894 13.7757 31.3897C13.7757 31.1257 13.7235 30.8643 13.6222 30.6206C13.5209 30.3769 13.3725 30.1557 13.1855 29.9698C12.9984 29.7839 12.7765 29.6371 12.5326 29.5377C12.2886 29.4383 12.0274 29.3883 11.7641 29.3907Z" fill="white"/>
<path d="M11.7641 44.086C11.3655 44.086 10.9759 44.2048 10.6448 44.4273C10.3136 44.6497 10.0558 44.9658 9.90407 45.3354C9.75237 45.705 9.71359 46.1115 9.79267 46.5032C9.87175 46.8949 10.0651 47.2542 10.3483 47.5356C10.6314 47.8169 10.9915 48.0076 11.3829 48.0834C11.7742 48.1592 12.1792 48.1167 12.5465 47.9613C12.9137 47.8058 13.2266 47.5445 13.4454 47.2105C13.6643 46.8764 13.7793 46.4847 13.7757 46.085C13.7757 45.821 13.7235 45.5596 13.6222 45.3159C13.5209 45.0722 13.3725 44.851 13.1855 44.6651C12.9984 44.4793 12.7765 44.3324 12.5326 44.233C12.2886 44.1336 12.0274 44.0836 11.7641 44.086Z" fill="white"/>
<path d="M16.65 4.90234C16.2521 4.90234 15.8632 5.02063 15.5324 5.24226C15.2016 5.46389 14.9438 5.77887 14.7916 6.14743C14.6393 6.51599 14.5995 6.92157 14.6771 7.31283C14.7547 7.70409 14.9463 8.06347 15.2276 8.34556C15.5089 8.62764 15.8673 8.81973 16.2575 8.89756C16.6477 8.97539 17.0522 8.93541 17.4198 8.78275C17.7873 8.63009 18.1015 8.37157 18.3225 8.03988C18.5435 7.70818 18.6615 7.31825 18.6615 6.91932C18.6615 6.38439 18.4496 5.87135 18.0724 5.49309C17.6951 5.11483 17.1835 4.90234 16.65 4.90234Z" fill="white"/>
<path d="M16.65 9.80078C16.2521 9.80078 15.8632 9.91907 15.5324 10.1407C15.2016 10.3623 14.9438 10.6773 14.7916 11.0459C14.6393 11.4144 14.5995 11.82 14.6771 12.2113C14.7547 12.6025 14.9463 12.9619 15.2276 13.244C15.5089 13.5261 15.8673 13.7182 16.2575 13.796C16.6477 13.8738 17.0522 13.8339 17.4198 13.6812C17.7873 13.5285 18.1015 13.27 18.3225 12.9383C18.5435 12.6066 18.6615 12.2167 18.6615 11.8178C18.6615 11.2828 18.4496 10.7698 18.0724 10.3915C17.6951 10.0133 17.1835 9.80078 16.65 9.80078Z" fill="white"/>
<path d="M16.6499 14.6954C16.2513 14.6954 15.8617 14.8141 15.5305 15.0366C15.1993 15.259 14.9415 15.5751 14.7898 15.9447C14.6381 16.3143 14.5993 16.7208 14.6784 17.1125C14.7575 17.5043 14.9509 17.8636 15.234 18.145C15.5171 18.4263 15.8772 18.617 16.2686 18.6928C16.66 18.7685 17.065 18.726 17.4322 18.5706C17.7994 18.4152 18.1123 18.1538 18.3312 17.8198C18.5501 17.4857 18.665 17.094 18.6614 16.6943C18.6614 16.4303 18.6093 16.1689 18.508 15.9252C18.4067 15.6815 18.2583 15.4603 18.0712 15.2744C17.8842 15.0886 17.6623 14.9417 17.4183 14.8424C17.1744 14.743 16.9132 14.693 16.6499 14.6954Z" fill="white"/>
<path d="M16.6499 29.3907C16.2513 29.3907 15.8617 29.5095 15.5305 29.7319C15.1993 29.9544 14.9415 30.2705 14.7898 30.6401C14.6381 31.0097 14.5993 31.4162 14.6784 31.8079C14.7575 32.1996 14.9509 32.559 15.234 32.8403C15.5171 33.1217 15.8772 33.3123 16.2686 33.3881C16.66 33.4639 17.065 33.4214 17.4322 33.2659C17.7994 33.1105 18.1123 32.8492 18.3312 32.5152C18.5501 32.1811 18.665 31.7894 18.6614 31.3897C18.6614 31.1257 18.6093 30.8643 18.508 30.6206C18.4067 30.3769 18.2583 30.1557 18.0712 29.9698C17.8842 29.7839 17.6623 29.6371 17.4183 29.5377C17.1744 29.4383 16.9132 29.3883 16.6499 29.3907Z" fill="white"/>
<path d="M16.65 48.9688C16.2521 48.9688 15.8632 49.087 15.5324 49.3087C15.2016 49.5303 14.9438 49.8453 14.7916 50.2138C14.6393 50.5824 14.5995 50.988 14.6771 51.3792C14.7547 51.7705 14.9463 52.1299 15.2276 52.412C15.5089 52.694 15.8673 52.8861 16.2575 52.964C16.6477 53.0418 17.0522 53.0018 17.4198 52.8492C17.7873 52.6965 18.1015 52.438 18.3225 52.1063C18.5435 51.7746 18.6615 51.3847 18.6615 50.9857C18.6615 50.4508 18.4496 49.9378 18.0724 49.5595C17.6951 49.1812 17.1835 48.9688 16.65 48.9688Z" fill="white"/>
<path d="M21.5347 0.00390625C21.1369 0.00390625 20.748 0.122196 20.4172 0.343825C20.0864 0.565455 19.8286 0.880437 19.6763 1.24899C19.5241 1.61755 19.4842 2.02313 19.5618 2.41439C19.6395 2.80565 19.831 3.16504 20.1124 3.44712C20.3937 3.7292 20.7521 3.9213 21.1423 3.99912C21.5325 4.07695 21.937 4.03697 22.3045 3.88431C22.6721 3.73165 22.9862 3.47313 23.2073 3.14144C23.4283 2.80975 23.5463 2.41981 23.5463 2.02089C23.5463 1.48595 23.3343 0.972915 22.9571 0.594656C22.5799 0.216397 22.0682 0.00390625 21.5347 0.00390625Z" fill="white"/>
<path d="M21.5347 4.90234C21.1369 4.90234 20.748 5.02063 20.4172 5.24226C20.0864 5.46389 19.8286 5.77887 19.6763 6.14743C19.5241 6.51599 19.4842 6.92157 19.5618 7.31283C19.6395 7.70409 19.831 8.06347 20.1124 8.34556C20.3937 8.62764 20.7521 8.81973 21.1423 8.89756C21.5325 8.97539 21.937 8.93541 22.3045 8.78275C22.6721 8.63009 22.9862 8.37157 23.2073 8.03988C23.4283 7.70818 23.5463 7.31825 23.5463 6.91932C23.5463 6.38439 23.3343 5.87135 22.9571 5.49309C22.5799 5.11483 22.0682 4.90234 21.5347 4.90234Z" fill="white"/>
<path d="M21.5347 14.6953C21.136 14.6953 20.7464 14.8141 20.4153 15.0365C20.0841 15.2589 19.8263 15.575 19.6746 15.9446C19.5229 16.3142 19.4841 16.7207 19.5632 17.1124C19.6423 17.5042 19.8356 17.8636 20.1187 18.1449C20.4019 18.4263 20.762 18.6169 21.1533 18.6927C21.5447 18.7685 21.9497 18.7259 22.317 18.5705C22.6842 18.4151 22.9971 18.1538 23.216 17.8197C23.4348 17.4857 23.5497 17.0939 23.5462 16.6943C23.5415 16.1625 23.3275 15.6541 22.9507 15.2797C22.574 14.9053 22.0651 14.6953 21.5347 14.6953Z" fill="white"/>
<path d="M21.5347 19.5977C21.136 19.5977 20.7464 19.7165 20.4153 19.9389C20.0841 20.1613 19.8263 20.4774 19.6746 20.847C19.5229 21.2166 19.4841 21.6231 19.5632 22.0148C19.6423 22.4066 19.8356 22.7659 20.1187 23.0473C20.4019 23.3287 20.762 23.5193 21.1533 23.5951C21.5447 23.6709 21.9497 23.6283 22.317 23.4729C22.6842 23.3175 22.9971 23.0562 23.216 22.7221C23.4348 22.3881 23.5497 21.9963 23.5462 21.5967C23.5415 21.0649 23.3275 20.5565 22.9507 20.1821C22.574 19.8077 22.0651 19.5976 21.5347 19.5977Z" fill="white"/>
<path d="M21.5347 29.3906C21.136 29.3906 20.7464 29.5094 20.4153 29.7319C20.0841 29.9543 19.8263 30.2704 19.6746 30.64C19.5229 31.0096 19.4841 31.4161 19.5632 31.8078C19.6423 32.1995 19.8356 32.5589 20.1187 32.8403C20.4019 33.1216 20.762 33.3122 21.1533 33.388C21.5447 33.4638 21.9497 33.4213 22.317 33.2659C22.6842 33.1104 22.9971 32.8491 23.216 32.5151C23.4348 32.181 23.5497 31.7893 23.5462 31.3896C23.5415 30.8578 23.3275 30.3494 22.9507 29.9751C22.574 29.6007 22.0651 29.3906 21.5347 29.3906Z" fill="white"/>
<path d="M21.5347 39.1914C21.136 39.1914 20.7464 39.3102 20.4153 39.5326C20.0841 39.7551 19.8263 40.0712 19.6746 40.4408C19.5229 40.8104 19.4841 41.2169 19.5632 41.6086C19.6423 42.0003 19.8356 42.3597 20.1187 42.6411C20.4019 42.9224 20.762 43.113 21.1533 43.1888C21.5447 43.2646 21.9497 43.2221 22.317 43.0667C22.6842 42.9112 22.9971 42.6499 23.216 42.3159C23.4348 41.9818 23.5497 41.5901 23.5462 41.1904C23.5415 40.6586 23.3275 40.1502 22.9507 39.7758C22.574 39.4014 22.0651 39.1914 21.5347 39.1914Z" fill="white"/>
<path d="M21.5347 44.0859C21.136 44.086 20.7464 44.2047 20.4153 44.4272C20.0841 44.6496 19.8263 44.9657 19.6746 45.3353C19.5229 45.7049 19.4841 46.1114 19.5632 46.5031C19.6423 46.8949 19.8356 47.2542 20.1187 47.5355C20.4019 47.8169 20.762 48.0076 21.1533 48.0834C21.5447 48.1591 21.9497 48.1166 22.317 47.9612C22.6842 47.8058 22.9971 47.5444 23.216 47.2104C23.4348 46.8763 23.5497 46.4846 23.5462 46.085C23.5415 45.5531 23.3275 45.0447 22.9507 44.6703C22.574 44.2959 22.0651 44.0859 21.5347 44.0859Z" fill="white"/>
<path d="M26.4202 0.00398817C26.0224 0.00398817 25.6335 0.122277 25.3027 0.343907C24.9719 0.565537 24.7141 0.880519 24.5618 1.24908C24.4096 1.61763 24.3697 2.02321 24.4473 2.41447C24.525 2.80573 24.7165 3.16512 24.9979 3.4472C25.2792 3.72928 25.6376 3.92138 26.0278 3.9992C26.418 4.07703 26.8225 4.03706 27.19 3.8844C27.5576 3.73173 27.8717 3.47321 28.0928 3.14152C28.3138 2.80983 28.4318 2.41989 28.4318 2.02097C28.4342 1.75543 28.3838 1.49207 28.2836 1.24627C28.1833 1.00047 28.0353 0.777128 27.848 0.589352C27.6607 0.401577 27.438 0.253108 27.1928 0.152596C26.9477 0.0520841 26.6851 0.00158491 26.4202 0.00398817Z" fill="white"/>
<path d="M26.4202 9.80086C26.0224 9.80086 25.6335 9.91915 25.3027 10.1408C24.9719 10.3624 24.7141 10.6774 24.5618 11.046C24.4096 11.4145 24.3697 11.8201 24.4473 12.2113C24.525 12.6026 24.7165 12.962 24.9979 13.2441C25.2792 13.5262 25.6376 13.7183 26.0278 13.7961C26.418 13.8739 26.8225 13.8339 27.19 13.6813C27.5576 13.5286 27.8717 13.2701 28.0928 12.9384C28.3138 12.6067 28.4318 12.2168 28.4318 11.8178C28.4342 11.5523 28.3838 11.2889 28.2836 11.0431C28.1833 10.7973 28.0353 10.574 27.848 10.3862C27.6607 10.1985 27.438 10.05 27.1928 9.94947C26.9477 9.84896 26.6851 9.79846 26.4202 9.80086Z" fill="white"/>
<path d="M26.4202 19.5938C26.0215 19.5938 25.6319 19.7126 25.3008 19.9351C24.9696 20.1575 24.7118 20.4736 24.5601 20.8432C24.4084 21.2128 24.3696 21.6193 24.4487 22.011C24.5278 22.4028 24.7211 22.7621 25.0042 23.0435C25.2874 23.3248 25.6475 23.5155 26.0388 23.5912C26.4302 23.667 26.8352 23.6245 27.2025 23.4691C27.5697 23.3136 27.8826 23.0523 28.1015 22.7183C28.3203 22.3842 28.4352 21.9925 28.4317 21.5928C28.4317 21.3288 28.3796 21.0674 28.2783 20.8237C28.177 20.58 28.0285 20.3588 27.8414 20.1729C27.6544 19.9871 27.4325 19.8402 27.1886 19.7408C26.9446 19.6415 26.6835 19.5915 26.4202 19.5938Z" fill="white"/>
<path d="M26.4202 24.4923C26.0215 24.4923 25.6319 24.6111 25.3008 24.8335C24.9696 25.0559 24.7118 25.372 24.5601 25.7416C24.4084 26.1112 24.3696 26.5177 24.4487 26.9095C24.5278 27.3012 24.7211 27.6606 25.0042 27.9419C25.2874 28.2233 25.6475 28.4139 26.0388 28.4897C26.4302 28.5655 26.8352 28.5229 27.2025 28.3675C27.5697 28.2121 27.8826 27.9508 28.1015 27.6167C28.3203 27.2827 28.4352 26.8909 28.4317 26.4913C28.4317 26.2272 28.3796 25.9658 28.2783 25.7221C28.177 25.4784 28.0285 25.2572 27.8414 25.0714C27.6544 24.8855 27.4325 24.7387 27.1886 24.6393C26.9446 24.5399 26.6835 24.4899 26.4202 24.4923Z" fill="white"/>
<path d="M26.4202 29.3907C26.0215 29.3907 25.6319 29.5095 25.3008 29.7319C24.9696 29.9544 24.7118 30.2705 24.5601 30.6401C24.4084 31.0097 24.3696 31.4162 24.4487 31.8079C24.5278 32.1996 24.7211 32.559 25.0042 32.8403C25.2874 33.1217 25.6475 33.3123 26.0388 33.3881C26.4302 33.4639 26.8352 33.4214 27.2025 33.2659C27.5697 33.1105 27.8826 32.8492 28.1015 32.5152C28.3203 32.1811 28.4352 31.7894 28.4317 31.3897C28.4317 31.1257 28.3796 30.8643 28.2783 30.6206C28.177 30.3769 28.0285 30.1557 27.8414 29.9698C27.6544 29.7839 27.4325 29.6371 27.1886 29.5377C26.9446 29.4383 26.6835 29.3883 26.4202 29.3907Z" fill="white"/>
<path d="M26.4202 34.2891C26.0215 34.2892 25.6319 34.4079 25.3008 34.6304C24.9696 34.8528 24.7118 35.1689 24.5601 35.5385C24.4084 35.9081 24.3696 36.3146 24.4487 36.7063C24.5278 37.0981 24.7211 37.4574 25.0042 37.7388C25.2874 38.0201 25.6475 38.2108 26.0388 38.2866C26.4302 38.3623 26.8352 38.3198 27.2025 38.1644C27.5697 38.009 27.8826 37.7476 28.1015 37.4136C28.3203 37.0795 28.4352 36.6878 28.4317 36.2882C28.4317 36.0241 28.3796 35.7627 28.2783 35.519C28.177 35.2753 28.0285 35.0541 27.8414 34.8682C27.6544 34.6824 27.4325 34.5355 27.1886 34.4361C26.9446 34.3367 26.6835 34.2868 26.4202 34.2891Z" fill="white"/>
<path d="M26.4202 44.086C26.0215 44.086 25.6319 44.2048 25.3008 44.4273C24.9696 44.6497 24.7118 44.9658 24.5601 45.3354C24.4084 45.705 24.3696 46.1115 24.4487 46.5032C24.5278 46.8949 24.7211 47.2542 25.0042 47.5356C25.2874 47.8169 25.6475 48.0076 26.0388 48.0834C26.4302 48.1592 26.8352 48.1167 27.2025 47.9613C27.5697 47.8058 27.8826 47.5445 28.1015 47.2105C28.3203 46.8764 28.4352 46.4847 28.4317 46.085C28.4317 45.821 28.3796 45.5596 28.2783 45.3159C28.177 45.0722 28.0285 44.851 27.8414 44.6651C27.6544 44.4793 27.4325 44.3324 27.1886 44.233C26.9446 44.1336 26.6835 44.0836 26.4202 44.086Z" fill="white"/>
<path d="M26.4199 48.9666C26.0224 48.9811 25.6382 49.1134 25.3157 49.3468C24.9932 49.5802 24.7469 49.9042 24.6081 50.2779C24.4692 50.6517 24.4439 51.0583 24.5354 51.4464C24.627 51.8345 24.8312 52.1867 25.1223 52.4584C25.4134 52.7302 25.7783 52.9093 26.1709 52.9732C26.5635 53.037 26.9662 52.9827 27.3281 52.8172C27.6899 52.6516 27.9947 52.3822 28.2039 52.043C28.4131 51.7039 28.5173 51.3101 28.5033 50.9115C28.5033 50.3766 28.2914 49.8635 27.9142 49.4853C27.5369 49.107 27.0253 48.8945 26.4918 48.8945" fill="white"/>
<path d="M31.3054 0.00398669C30.9068 0.000418062 30.5161 0.115663 30.183 0.335112C29.8498 0.554561 29.5892 0.868315 29.4342 1.23654C29.2792 1.60477 29.2368 2.01088 29.3124 2.40331C29.3879 2.79575 29.5781 3.15683 29.8587 3.44071C30.1392 3.7246 30.4976 3.91848 30.8883 3.99777C31.279 4.07707 31.6844 4.03821 32.053 3.8861C32.4216 3.73398 32.7368 3.47546 32.9587 3.14339C33.1805 2.81132 33.299 2.42065 33.299 2.02097C33.299 1.48913 33.0895 0.978802 32.7161 0.601057C32.3428 0.223311 31.8358 0.0087352 31.3054 0.00398669Z" fill="white"/>
<path d="M31.3054 4.89852C30.9068 4.89495 30.5161 5.01019 30.183 5.22964C29.8498 5.44909 29.5892 5.76285 29.4342 6.13108C29.2792 6.4993 29.2368 6.90541 29.3124 7.29785C29.3879 7.69028 29.5781 8.05136 29.8587 8.33525C30.1392 8.61913 30.4976 8.81301 30.8883 8.89231C31.279 8.9716 31.6844 8.93275 32.053 8.78063C32.4216 8.62851 32.7368 8.36999 32.9587 8.03792C33.1805 7.70585 33.299 7.31519 33.299 6.9155C33.299 6.38367 33.0895 5.87333 32.7161 5.49559C32.3428 5.11784 31.8358 4.90327 31.3054 4.89852Z" fill="white"/>
<path d="M31.3053 14.6954C30.906 14.6918 30.5146 14.8075 30.181 15.0278C29.8475 15.248 29.5869 15.5628 29.4324 15.9321C29.278 16.3014 29.2366 16.7084 29.3137 17.1014C29.3907 17.4943 29.5827 17.8553 29.8651 18.1385C30.1475 18.4217 30.5075 18.6141 30.8994 18.6914C31.2912 18.7686 31.6972 18.7272 32.0655 18.5723C32.4338 18.4174 32.7477 18.1561 32.9674 17.8217C33.187 17.4872 33.3025 17.0948 33.2989 16.6943C33.2942 16.1656 33.0827 15.6599 32.7098 15.286C32.337 14.9122 31.8326 14.7001 31.3053 14.6954Z" fill="white"/>
<path d="M31.3053 24.4923C30.906 24.4887 30.5146 24.6045 30.181 24.8247C29.8475 25.045 29.5869 25.3598 29.4324 25.7291C29.278 26.0983 29.2366 26.5054 29.3137 26.8983C29.3907 27.2912 29.5827 27.6523 29.8651 27.9354C30.1475 28.2186 30.5075 28.4111 30.8994 28.4883C31.2912 28.5656 31.6972 28.5241 32.0655 28.3692C32.4338 28.2143 32.7477 27.953 32.9674 27.6186C33.187 27.2841 33.3025 26.8917 33.2989 26.4913C33.2942 25.9626 33.0827 25.4568 32.7098 25.083C32.337 24.7091 31.8326 24.497 31.3053 24.4923Z" fill="white"/>
<path d="M31.3053 34.2891C30.906 34.2856 30.5146 34.4013 30.181 34.6216C29.8475 34.8418 29.5869 35.1566 29.4324 35.5259C29.278 35.8952 29.2366 36.3022 29.3137 36.6952C29.3907 37.0881 29.5827 37.4491 29.8651 37.7323C30.1475 38.0155 30.5075 38.2079 30.8994 38.2852C31.2912 38.3624 31.6972 38.321 32.0655 38.1661C32.4338 38.0112 32.7477 37.7499 32.9674 37.4155C33.187 37.081 33.3025 36.6886 33.2989 36.2882C33.2942 35.7594 33.0827 35.2537 32.7098 34.8798C32.337 34.506 31.8326 34.2938 31.3053 34.2891Z" fill="white"/>
<path d="M31.3053 39.1915C30.906 39.1879 30.5146 39.3037 30.181 39.5239C29.8475 39.7442 29.5869 40.059 29.4324 40.4283C29.278 40.7976 29.2366 41.2046 29.3137 41.5975C29.3907 41.9905 29.5827 42.3515 29.8651 42.6346C30.1475 42.9178 30.5075 43.1103 30.8994 43.1875C31.2912 43.2648 31.6972 43.2233 32.0655 43.0684C32.4338 42.9136 32.7477 42.6523 32.9674 42.3178C33.187 41.9834 33.3025 41.5909 33.2989 41.1905C33.2942 40.6618 33.0827 40.1561 32.7098 39.7822C32.337 39.4083 31.8326 39.1962 31.3053 39.1915Z" fill="white"/>
<path d="M31.3053 44.086C30.906 44.0825 30.5146 44.1982 30.181 44.4185C29.8475 44.6387 29.5869 44.9535 29.4324 45.3228C29.278 45.6921 29.2366 46.0991 29.3137 46.4921C29.3907 46.885 29.5827 47.246 29.8651 47.5292C30.1475 47.8123 30.5075 48.0048 30.8994 48.0821C31.2912 48.1593 31.6972 48.1179 32.0655 47.963C32.4338 47.8081 32.7477 47.5468 32.9674 47.2123C33.187 46.8779 33.3025 46.4855 33.2989 46.085C33.2942 45.5563 33.0827 45.0506 32.7098 44.6767C32.337 44.3028 31.8326 44.0907 31.3053 44.086Z" fill="white"/>
<path d="M31.305 48.9688C30.7715 48.9688 30.2598 49.1812 29.8826 49.5595C29.5054 49.9378 29.2935 50.4508 29.2935 50.9857C29.2935 51.5207 29.5054 52.0337 29.8826 52.412C30.2598 52.7902 30.7715 53.0027 31.305 53.0027C31.8385 53.0027 32.3501 52.7902 32.7274 52.412C33.1046 52.0337 33.3165 51.5207 33.3165 50.9857C33.3165 50.4508 33.1046 49.9378 32.7274 49.5595C32.3501 49.1812 31.8385 48.9688 31.305 48.9688Z" fill="white"/>
<path d="M36.1899 0.00398669C35.7913 0.000418062 35.4006 0.115663 35.0675 0.335112C34.7343 0.554561 34.4737 0.868315 34.3187 1.23654C34.1637 1.60477 34.1213 2.01088 34.1969 2.40331C34.2725 2.79575 34.4626 3.15683 34.7432 3.44071C35.0238 3.7246 35.3822 3.91848 35.7728 3.99777C36.1635 4.07707 36.5689 4.03821 36.9375 3.8861C37.3061 3.73398 37.6214 3.47546 37.8432 3.14339C38.065 2.81132 38.1835 2.42065 38.1835 2.02097C38.1835 1.48913 37.974 0.978802 37.6007 0.601057C37.2273 0.223311 36.7203 0.0087352 36.1899 0.00398669Z" fill="white"/>
<path d="M36.1908 24.4923C35.7914 24.4887 35.4001 24.6045 35.0665 24.8247C34.733 25.045 34.4724 25.3598 34.3179 25.7291C34.1635 26.0983 34.1221 26.5054 34.1992 26.8983C34.2762 27.2912 34.4682 27.6523 34.7506 27.9354C35.0329 28.2186 35.393 28.4111 35.7849 28.4883C36.1767 28.5656 36.5827 28.5241 36.951 28.3692C37.3193 28.2143 37.6332 27.953 37.8529 27.6186C38.0725 27.2841 38.188 26.8917 38.1844 26.4913C38.1797 25.9626 37.9682 25.4568 37.5953 25.083C37.2225 24.7091 36.7181 24.497 36.1908 24.4923Z" fill="white"/>
<path d="M36.1908 29.3907C35.7914 29.3871 35.4001 29.5029 35.0665 29.7231C34.733 29.9434 34.4724 30.2582 34.3179 30.6275C34.1635 30.9968 34.1221 31.4038 34.1992 31.7967C34.2762 32.1897 34.4682 32.5507 34.7506 32.8339C35.0329 33.117 35.393 33.3095 35.7849 33.3867C36.1767 33.464 36.5827 33.4225 36.951 33.2676C37.3193 33.1128 37.6332 32.8515 37.8529 32.517C38.0725 32.1826 38.188 31.7901 38.1844 31.3897C38.1797 30.861 37.9682 30.3553 37.5953 29.9814C37.2225 29.6075 36.7181 29.3954 36.1908 29.3907Z" fill="white"/>
<path d="M36.1908 34.2891C35.7914 34.2856 35.4001 34.4013 35.0665 34.6216C34.733 34.8418 34.4724 35.1566 34.3179 35.5259C34.1635 35.8952 34.1221 36.3022 34.1992 36.6952C34.2762 37.0881 34.4682 37.4491 34.7506 37.7323C35.0329 38.0155 35.393 38.2079 35.7849 38.2852C36.1767 38.3624 36.5827 38.321 36.951 38.1661C37.3193 38.0112 37.6332 37.7499 37.8529 37.4155C38.0725 37.081 38.188 36.6886 38.1844 36.2882C38.1797 35.7594 37.9682 35.2537 37.5953 34.8798C37.2225 34.506 36.7181 34.2938 36.1908 34.2891Z" fill="white"/>
<path d="M36.1908 39.1915C35.7914 39.1879 35.4001 39.3037 35.0665 39.5239C34.733 39.7442 34.4724 40.059 34.3179 40.4283C34.1635 40.7976 34.1221 41.2046 34.1992 41.5975C34.2762 41.9905 34.4682 42.3515 34.7506 42.6346C35.0329 42.9178 35.393 43.1103 35.7849 43.1875C36.1767 43.2648 36.5827 43.2233 36.951 43.0684C37.3193 42.9136 37.6332 42.6523 37.8529 42.3178C38.0725 41.9834 38.188 41.5909 38.1844 41.1905C38.1797 40.6618 37.9682 40.1561 37.5953 39.7822C37.2225 39.4083 36.7181 39.1962 36.1908 39.1915Z" fill="white"/>
<path d="M36.1908 44.086C35.7914 44.0825 35.4001 44.1982 35.0665 44.4185C34.733 44.6387 34.4724 44.9535 34.3179 45.3228C34.1635 45.6921 34.1221 46.0991 34.1992 46.4921C34.2762 46.885 34.4682 47.246 34.7506 47.5292C35.0329 47.8123 35.393 48.0048 35.7849 48.0821C36.1767 48.1593 36.5827 48.1179 36.951 47.963C37.3193 47.8081 37.6332 47.5468 37.8529 47.2123C38.0725 46.8779 38.188 46.4855 38.1844 46.085C38.1797 45.5563 37.9682 45.0506 37.5953 44.6767C37.2225 44.3028 36.7181 44.0907 36.1908 44.086Z" fill="white"/>
<path d="M36.1905 48.9688C35.657 48.9688 35.1453 49.1812 34.7681 49.5595C34.3909 49.9378 34.179 50.4508 34.179 50.9857C34.179 51.5207 34.3909 52.0337 34.7681 52.412C35.1453 52.7902 35.657 53.0027 36.1905 53.0027C36.724 53.0027 37.2356 52.7902 37.6129 52.412C37.9901 52.0337 38.202 51.5207 38.202 50.9857C38.202 50.4508 37.9901 49.9378 37.6129 49.5595C37.2356 49.1812 36.724 48.9688 36.1905 48.9688Z" fill="white"/>
<path d="M41.0756 9.80086C40.677 9.79729 40.2864 9.91254 39.9532 10.132C39.6201 10.3514 39.3595 10.6652 39.2045 11.0334C39.0495 11.4016 39.0071 11.8078 39.0826 12.2002C39.1582 12.5926 39.3483 12.9537 39.6289 13.2376C39.9095 13.5215 40.2679 13.7154 40.6586 13.7946C41.0493 13.8739 41.4546 13.835 41.8233 13.6829C42.1919 13.5308 42.5071 13.2723 42.7289 12.9403C42.9508 12.6082 43.0692 12.2175 43.0692 11.8178C43.0692 11.286 42.8598 10.7757 42.4864 10.3979C42.113 10.0202 41.606 9.80561 41.0756 9.80086Z" fill="white"/>
<path d="M41.0756 14.6954C40.6762 14.6918 40.2848 14.8075 39.9513 15.0278C39.6178 15.248 39.3572 15.5628 39.2027 15.9321C39.0482 16.3014 39.0069 16.7084 39.0839 17.1014C39.161 17.4943 39.3529 17.8553 39.6353 18.1385C39.9177 18.4217 40.2778 18.6141 40.6696 18.6914C41.0615 18.7686 41.4674 18.7272 41.8357 18.5723C42.204 18.4174 42.518 18.1561 42.7376 17.8217C42.9573 17.4872 43.0727 17.0948 43.0691 16.6943C43.0644 16.1656 42.8529 15.6599 42.4801 15.286C42.1072 14.9122 41.6028 14.7001 41.0756 14.6954Z" fill="white"/>
<path d="M41.0756 19.5938C40.6762 19.5903 40.2848 19.706 39.9513 19.9263C39.6178 20.1465 39.3572 20.4613 39.2027 20.8306C39.0482 21.1999 39.0069 21.6069 39.0839 21.9999C39.161 22.3928 39.3529 22.7538 39.6353 23.037C39.9177 23.3201 40.2778 23.5126 40.6696 23.5899C41.0615 23.6671 41.4674 23.6257 41.8357 23.4708C42.204 23.3159 42.518 23.0546 42.7376 22.7202C42.9573 22.3857 43.0727 21.9933 43.0691 21.5928C43.0644 21.0641 42.8529 20.5584 42.4801 20.1845C42.1072 19.8107 41.6028 19.5985 41.0756 19.5938Z" fill="white"/>
<path d="M41.0756 24.4923C40.6762 24.4887 40.2848 24.6045 39.9513 24.8247C39.6178 25.045 39.3572 25.3598 39.2027 25.7291C39.0482 26.0983 39.0069 26.5054 39.0839 26.8983C39.161 27.2912 39.3529 27.6523 39.6353 27.9354C39.9177 28.2186 40.2778 28.4111 40.6696 28.4883C41.0615 28.5656 41.4674 28.5241 41.8357 28.3692C42.204 28.2143 42.518 27.953 42.7376 27.6186C42.9573 27.2841 43.0727 26.8917 43.0691 26.4913C43.0644 25.9626 42.8529 25.4568 42.4801 25.083C42.1072 24.7091 41.6028 24.497 41.0756 24.4923Z" fill="white"/>
<path d="M41.0756 29.3907C40.6762 29.3871 40.2848 29.5029 39.9513 29.7231C39.6178 29.9434 39.3572 30.2582 39.2027 30.6275C39.0482 30.9968 39.0069 31.4038 39.0839 31.7967C39.161 32.1897 39.3529 32.5507 39.6353 32.8339C39.9177 33.117 40.2778 33.3095 40.6696 33.3867C41.0615 33.464 41.4674 33.4225 41.8357 33.2676C42.204 33.1128 42.518 32.8515 42.7376 32.517C42.9573 32.1826 43.0727 31.7901 43.0691 31.3897C43.0644 30.861 42.8529 30.3553 42.4801 29.9814C42.1072 29.6075 41.6028 29.3954 41.0756 29.3907Z" fill="white"/>
<path d="M41.0756 34.2891C40.6762 34.2856 40.2848 34.4013 39.9513 34.6216C39.6178 34.8418 39.3572 35.1566 39.2027 35.5259C39.0482 35.8952 39.0069 36.3022 39.0839 36.6952C39.161 37.0881 39.3529 37.4491 39.6353 37.7323C39.9177 38.0155 40.2778 38.2079 40.6696 38.2852C41.0615 38.3624 41.4674 38.321 41.8357 38.1661C42.204 38.0112 42.518 37.7499 42.7376 37.4155C42.9573 37.081 43.0727 36.6886 43.0691 36.2882C43.0644 35.7594 42.8529 35.2537 42.4801 34.8798C42.1072 34.506 41.6028 34.2938 41.0756 34.2891Z" fill="white"/>
<path d="M41.0756 39.1915C40.6762 39.1879 40.2848 39.3037 39.9513 39.5239C39.6178 39.7442 39.3572 40.059 39.2027 40.4283C39.0482 40.7976 39.0069 41.2046 39.0839 41.5975C39.161 41.9905 39.3529 42.3515 39.6353 42.6346C39.9177 42.9178 40.2778 43.1103 40.6696 43.1875C41.0615 43.2648 41.4674 43.2233 41.8357 43.0684C42.204 42.9136 42.518 42.6523 42.7376 42.3178C42.9573 41.9834 43.0727 41.5909 43.0691 41.1905C43.0644 40.6618 42.8529 40.1561 42.4801 39.7822C42.1072 39.4083 41.6028 39.1962 41.0756 39.1915Z" fill="white"/>
<path d="M41.0756 44.086C40.6762 44.0825 40.2848 44.1982 39.9513 44.4185C39.6178 44.6387 39.3572 44.9535 39.2027 45.3228C39.0482 45.6921 39.0069 46.0991 39.0839 46.4921C39.161 46.885 39.3529 47.246 39.6353 47.5292C39.9177 47.8123 40.2778 48.0048 40.6696 48.0821C41.0615 48.1593 41.4674 48.1179 41.8357 47.963C42.204 47.8081 42.518 47.5468 42.7376 47.2123C42.9573 46.8779 43.0727 46.4855 43.0691 46.085C43.0644 45.5563 42.8529 45.0506 42.4801 44.6767C42.1072 44.3028 41.6028 44.0907 41.0756 44.086Z" fill="white"/>
<path d="M41.0756 48.9688C40.677 48.9653 40.2864 49.0805 39.9532 49.3C39.6201 49.5194 39.3595 49.8332 39.2045 50.2014C39.0495 50.5696 39.0071 50.9757 39.0826 51.3682C39.1582 51.7606 39.3483 52.1217 39.6289 52.4056C39.9095 52.6895 40.2679 52.8833 40.6586 52.9626C41.0493 53.0419 41.4546 53.003 41.8233 52.8509C42.1919 52.6988 42.5071 52.4403 42.7289 52.1082C42.9508 51.7762 43.0692 51.3855 43.0692 50.9858C43.0692 50.454 42.8598 49.9436 42.4864 49.5659C42.113 49.1882 41.606 48.9736 41.0756 48.9688Z" fill="white"/>
<path d="M45.9611 0.00398669C45.5625 0.000418062 45.1719 0.115663 44.8387 0.335112C44.5056 0.554561 44.245 0.868315 44.09 1.23654C43.935 1.60477 43.8926 2.01088 43.9681 2.40331C44.0437 2.79575 44.2338 3.15683 44.5144 3.44071C44.795 3.7246 45.1534 3.91848 45.5441 3.99777C45.9348 4.07707 46.3401 4.03821 46.7088 3.8861C47.0774 3.73398 47.3926 3.47546 47.6144 3.14339C47.8363 2.81132 47.9547 2.42065 47.9547 2.02097C47.9547 1.48913 47.7453 0.978802 47.3719 0.601057C46.9985 0.223311 46.4915 0.0087352 45.9611 0.00398669Z" fill="white"/>
<path d="M45.9611 4.89852C45.5625 4.89495 45.1719 5.01019 44.8387 5.22964C44.5056 5.44909 44.245 5.76285 44.09 6.13108C43.935 6.4993 43.8926 6.90541 43.9681 7.29785C44.0437 7.69028 44.2338 8.05136 44.5144 8.33525C44.795 8.61913 45.1534 8.81301 45.5441 8.89231C45.9348 8.9716 46.3401 8.93275 46.7088 8.78063C47.0774 8.62851 47.3926 8.36999 47.6144 8.03792C47.8363 7.70585 47.9547 7.31519 47.9547 6.9155C47.9547 6.38367 47.7453 5.87333 47.3719 5.49559C46.9985 5.11784 46.4915 4.90327 45.9611 4.89852Z" fill="white"/>
<path d="M45.9611 9.80086C45.5625 9.79729 45.1719 9.91254 44.8387 10.132C44.5056 10.3514 44.245 10.6652 44.09 11.0334C43.935 11.4016 43.8926 11.8078 43.9681 12.2002C44.0437 12.5926 44.2338 12.9537 44.5144 13.2376C44.795 13.5215 45.1534 13.7154 45.5441 13.7946C45.9348 13.8739 46.3401 13.835 46.7088 13.6829C47.0774 13.5308 47.3926 13.2723 47.6144 12.9403C47.8363 12.6082 47.9547 12.2175 47.9547 11.8178C47.9547 11.286 47.7453 10.7757 47.3719 10.3979C46.9985 10.0202 46.4915 9.80561 45.9611 9.80086Z" fill="white"/>
<path d="M45.9611 14.6954C45.5617 14.6918 45.1703 14.8075 44.8368 15.0278C44.5033 15.248 44.2427 15.5628 44.0882 15.9321C43.9337 16.3014 43.8924 16.7084 43.9694 17.1014C44.0465 17.4943 44.2384 17.8553 44.5208 18.1385C44.8032 18.4217 45.1633 18.6141 45.5551 18.6914C45.947 18.7686 46.3529 18.7272 46.7212 18.5723C47.0895 18.4174 47.4035 18.1561 47.6231 17.8217C47.8428 17.4872 47.9582 17.0948 47.9546 16.6943C47.9499 16.1656 47.7384 15.6599 47.3656 15.286C46.9927 14.9122 46.4884 14.7001 45.9611 14.6954Z" fill="white"/>
<path d="M45.9611 19.5938C45.5617 19.5903 45.1703 19.706 44.8368 19.9263C44.5033 20.1465 44.2427 20.4613 44.0882 20.8306C43.9337 21.1999 43.8924 21.6069 43.9694 21.9999C44.0465 22.3928 44.2384 22.7538 44.5208 23.037C44.8032 23.3201 45.1633 23.5126 45.5551 23.5899C45.947 23.6671 46.3529 23.6257 46.7212 23.4708C47.0895 23.3159 47.4035 23.0546 47.6231 22.7202C47.8428 22.3857 47.9582 21.9933 47.9546 21.5928C47.9499 21.0641 47.7384 20.5584 47.3656 20.1845C46.9927 19.8107 46.4884 19.5985 45.9611 19.5938Z" fill="white"/>
<path d="M45.9611 24.4923C45.5617 24.4887 45.1703 24.6045 44.8368 24.8247C44.5033 25.045 44.2427 25.3598 44.0882 25.7291C43.9337 26.0983 43.8924 26.5054 43.9694 26.8983C44.0465 27.2912 44.2384 27.6523 44.5208 27.9354C44.8032 28.2186 45.1633 28.4111 45.5551 28.4883C45.947 28.5656 46.3529 28.5241 46.7212 28.3692C47.0895 28.2143 47.4035 27.953 47.6231 27.6186C47.8428 27.2841 47.9582 26.8917 47.9546 26.4913C47.9499 25.9626 47.7384 25.4568 47.3656 25.083C46.9927 24.7091 46.4884 24.497 45.9611 24.4923Z" fill="white"/>
<path d="M45.9611 29.3907C45.5617 29.3871 45.1703 29.5029 44.8368 29.7231C44.5033 29.9434 44.2427 30.2582 44.0882 30.6275C43.9337 30.9968 43.8924 31.4038 43.9694 31.7967C44.0465 32.1897 44.2384 32.5507 44.5208 32.8339C44.8032 33.117 45.1633 33.3095 45.5551 33.3867C45.947 33.464 46.3529 33.4225 46.7212 33.2676C47.0895 33.1128 47.4035 32.8515 47.6231 32.517C47.8428 32.1826 47.9582 31.7901 47.9546 31.3897C47.9499 30.861 47.7384 30.3553 47.3656 29.9814C46.9927 29.6075 46.4884 29.3954 45.9611 29.3907Z" fill="white"/>
<path d="M45.9611 34.2891C45.5617 34.2856 45.1703 34.4013 44.8368 34.6216C44.5033 34.8418 44.2427 35.1566 44.0882 35.5259C43.9337 35.8952 43.8924 36.3022 43.9694 36.6952C44.0465 37.0881 44.2384 37.4491 44.5208 37.7323C44.8032 38.0155 45.1633 38.2079 45.5551 38.2852C45.947 38.3624 46.3529 38.321 46.7212 38.1661C47.0895 38.0112 47.4035 37.7499 47.6231 37.4155C47.8428 37.081 47.9582 36.6886 47.9546 36.2882C47.9499 35.7594 47.7384 35.2537 47.3656 34.8798C46.9927 34.506 46.4884 34.2938 45.9611 34.2891Z" fill="white"/>
<path d="M45.9611 39.1915C45.5617 39.1879 45.1703 39.3037 44.8368 39.5239C44.5033 39.7442 44.2427 40.059 44.0882 40.4283C43.9337 40.7976 43.8924 41.2046 43.9694 41.5975C44.0465 41.9905 44.2384 42.3515 44.5208 42.6346C44.8032 42.9178 45.1633 43.1103 45.5551 43.1875C45.947 43.2648 46.3529 43.2233 46.7212 43.0684C47.0895 42.9136 47.4035 42.6523 47.6231 42.3178C47.8428 41.9834 47.9582 41.5909 47.9546 41.1905C47.9499 40.6618 47.7384 40.1561 47.3656 39.7822C46.9927 39.4083 46.4884 39.1962 45.9611 39.1915Z" fill="white"/>
<path d="M50.8459 0.00398669C50.4473 0.000418062 50.0567 0.115663 49.7235 0.335112C49.3903 0.554561 49.1297 0.868315 48.9747 1.23654C48.8197 1.60477 48.7773 2.01088 48.8529 2.40331C48.9285 2.79575 49.1186 3.15683 49.3992 3.44071C49.6798 3.7246 50.0382 3.91848 50.4289 3.99777C50.8195 4.07707 51.2249 4.03821 51.5935 3.8861C51.9621 3.73398 52.2774 3.47546 52.4992 3.14339C52.721 2.81132 52.8395 2.42065 52.8395 2.02097C52.8395 1.48913 52.63 0.978802 52.2567 0.601057C51.8833 0.223311 51.3763 0.0087352 50.8459 0.00398669Z" fill="white"/>
<path d="M50.8459 4.89852C50.4473 4.89495 50.0567 5.01019 49.7235 5.22964C49.3903 5.44909 49.1297 5.76285 48.9747 6.13108C48.8197 6.4993 48.7773 6.90541 48.8529 7.29785C48.9285 7.69028 49.1186 8.05136 49.3992 8.33525C49.6798 8.61913 50.0382 8.81301 50.4289 8.89231C50.8195 8.9716 51.2249 8.93275 51.5935 8.78063C51.9621 8.62851 52.2774 8.36999 52.4992 8.03792C52.721 7.70585 52.8395 7.31519 52.8395 6.9155C52.8395 6.38367 52.63 5.87333 52.2567 5.49559C51.8833 5.11784 51.3763 4.90327 50.8459 4.89852Z" fill="white"/>
<path d="M50.8459 9.80086C50.4473 9.79729 50.0567 9.91254 49.7235 10.132C49.3903 10.3514 49.1297 10.6652 48.9747 11.0334C48.8197 11.4016 48.7773 11.8078 48.8529 12.2002C48.9285 12.5926 49.1186 12.9537 49.3992 13.2376C49.6798 13.5215 50.0382 13.7154 50.4289 13.7946C50.8195 13.8739 51.2249 13.835 51.5935 13.6829C51.9621 13.5308 52.2774 13.2723 52.4992 12.9403C52.721 12.6082 52.8395 12.2175 52.8395 11.8178C52.8395 11.286 52.63 10.7757 52.2567 10.3979C51.8833 10.0202 51.3763 9.80561 50.8459 9.80086Z" fill="white"/>
<path d="M50.8458 14.6954C50.4465 14.6918 50.0551 14.8075 49.7216 15.0278C49.388 15.248 49.1274 15.5628 48.973 15.9321C48.8185 16.3014 48.7771 16.7084 48.8542 17.1014C48.9312 17.4943 49.1232 17.8553 49.4056 18.1385C49.688 18.4217 50.048 18.6141 50.4399 18.6914C50.8318 18.7686 51.2377 18.7272 51.606 18.5723C51.9743 18.4174 52.2882 18.1561 52.5079 17.8217C52.7276 17.4872 52.8429 17.0948 52.8394 16.6943C52.8347 16.1656 52.6232 15.6599 52.2503 15.286C51.8775 14.9122 51.3731 14.7001 50.8458 14.6954Z" fill="white"/>
<path d="M50.8458 19.5938C50.4465 19.5903 50.0551 19.706 49.7216 19.9263C49.388 20.1465 49.1274 20.4613 48.973 20.8306C48.8185 21.1999 48.7771 21.6069 48.8542 21.9999C48.9312 22.3928 49.1232 22.7538 49.4056 23.037C49.688 23.3201 50.048 23.5126 50.4399 23.5899C50.8318 23.6671 51.2377 23.6257 51.606 23.4708C51.9743 23.3159 52.2882 23.0546 52.5079 22.7202C52.7276 22.3857 52.8429 21.9933 52.8394 21.5928C52.8347 21.0641 52.6232 20.5584 52.2503 20.1845C51.8775 19.8107 51.3731 19.5985 50.8458 19.5938Z" fill="white"/>
<path d="M50.8458 34.2891C50.4465 34.2856 50.0551 34.4013 49.7216 34.6216C49.388 34.8418 49.1274 35.1566 48.973 35.5259C48.8185 35.8952 48.7771 36.3022 48.8542 36.6952C48.9312 37.0881 49.1232 37.4491 49.4056 37.7323C49.688 38.0155 50.048 38.2079 50.4399 38.2852C50.8318 38.3624 51.2377 38.321 51.606 38.1661C51.9743 38.0112 52.2882 37.7499 52.5079 37.4155C52.7276 37.081 52.8429 36.6886 52.8394 36.2882C52.8347 35.7594 52.6232 35.2537 52.2503 34.8798C51.8775 34.506 51.3731 34.2938 50.8458 34.2891Z" fill="white"/>
<path d="M50.8458 39.1915C50.4465 39.1879 50.0551 39.3037 49.7216 39.5239C49.388 39.7442 49.1274 40.059 48.973 40.4283C48.8185 40.7976 48.7771 41.2046 48.8542 41.5975C48.9312 41.9905 49.1232 42.3515 49.4056 42.6346C49.688 42.9178 50.048 43.1103 50.4399 43.1875C50.8318 43.2648 51.2377 43.2233 51.606 43.0684C51.9743 42.9136 52.2882 42.6523 52.5079 42.3178C52.7276 41.9834 52.8429 41.5909 52.8394 41.1905C52.8347 40.6618 52.6232 40.1561 52.2503 39.7822C51.8775 39.4083 51.3731 39.1962 50.8458 39.1915Z" fill="white"/>
<path d="M55.7313 34.2891C55.332 34.2856 54.9406 34.4013 54.6071 34.6216C54.2735 34.8418 54.0129 35.1566 53.8585 35.5259C53.704 35.8952 53.6626 36.3022 53.7397 36.6952C53.8167 37.0881 54.0087 37.4491 54.2911 37.7323C54.5735 38.0155 54.9335 38.2079 55.3254 38.2852C55.7173 38.3624 56.1232 38.321 56.4915 38.1661C56.8598 38.0112 57.1737 37.7499 57.3934 37.4155C57.6131 37.081 57.7284 36.6886 57.7249 36.2882C57.7202 35.7594 57.5087 35.2537 57.1358 34.8798C56.763 34.506 56.2586 34.2938 55.7313 34.2891Z" fill="white"/>
<path d="M55.7313 39.1915C55.332 39.1879 54.9406 39.3037 54.6071 39.5239C54.2735 39.7442 54.0129 40.059 53.8585 40.4283C53.704 40.7976 53.6626 41.2046 53.7397 41.5975C53.8167 41.9905 54.0087 42.3515 54.2911 42.6346C54.5735 42.9178 54.9335 43.1103 55.3254 43.1875C55.7173 43.2648 56.1232 43.2233 56.4915 43.0684C56.8598 42.9136 57.1737 42.6523 57.3934 42.3178C57.6131 41.9834 57.7284 41.5909 57.7249 41.1905C57.7202 40.6618 57.5087 40.1561 57.1358 39.7822C56.763 39.4083 56.2586 39.1962 55.7313 39.1915Z" fill="white"/>
<path d="M60.6161 34.2891C60.2167 34.2856 59.8254 34.4013 59.4918 34.6216C59.1583 34.8418 58.8977 35.1566 58.7432 35.5259C58.5888 35.8952 58.5474 36.3022 58.6245 36.6952C58.7015 37.0881 58.8935 37.4491 59.1758 37.7323C59.4582 38.0155 59.8183 38.2079 60.2102 38.2852C60.602 38.3624 61.008 38.321 61.3763 38.1661C61.7446 38.0112 62.0585 37.7499 62.2782 37.4155C62.4978 37.081 62.6132 36.6886 62.6097 36.2882C62.605 35.7594 62.3935 35.2537 62.0206 34.8798C61.6478 34.506 61.1434 34.2938 60.6161 34.2891Z" fill="white"/>
<path d="M60.6164 39.1914C60.2178 39.1914 59.8282 39.3102 59.4971 39.5326C59.1659 39.7551 58.9081 40.0712 58.7563 40.4408C58.6046 40.8104 58.5659 41.2169 58.645 41.6086C58.7241 42.0003 58.9174 42.3597 59.2005 42.6411C59.4836 42.9224 59.8437 43.113 60.2351 43.1888C60.6265 43.2646 61.0315 43.2221 61.3987 43.0667C61.766 42.9112 62.0789 42.6499 62.2977 42.3159C62.5166 41.9818 62.6315 41.5901 62.628 41.1904C62.6232 40.6586 62.4092 40.1502 62.0325 39.7758C61.6558 39.4014 61.1468 39.1914 60.6164 39.1914Z" fill="white"/>
<path d="M65.5016 39.1915C65.1022 39.1879 64.7109 39.3037 64.3773 39.5239C64.0438 39.7442 63.7832 40.059 63.6287 40.4283C63.4743 40.7976 63.4329 41.2046 63.51 41.5975C63.587 41.9905 63.7789 42.3515 64.0613 42.6346C64.3437 42.9178 64.7038 43.1103 65.0957 43.1875C65.4875 43.2648 65.8935 43.2233 66.2618 43.0684C66.63 42.9136 66.944 42.6523 67.1637 42.3178C67.3833 41.9834 67.4987 41.5909 67.4951 41.1905C67.4905 40.6618 67.279 40.1561 66.9061 39.7822C66.5332 39.4083 66.0289 39.1962 65.5016 39.1915Z" fill="white"/>
<path d="M65.8064 2.28755C65.4535 1.56759 64.8936 0.970085 64.199 0.572074C63.5044 0.174063 62.7068 -0.00619604 61.909 0.0544736H55.7307C55.1972 0.0544736 54.6856 0.266965 54.3083 0.645224C53.9311 1.02348 53.7192 1.53652 53.7192 2.07145V2.50365C53.8177 2.94985 54.0657 3.34873 54.4219 3.63382C54.7782 3.91891 55.2211 4.07298 55.6768 4.07041C56.1317 4.0697 56.573 3.91442 56.9285 3.62986C57.2841 3.3453 57.5329 2.94829 57.6345 2.50365V2.93584C57.6189 3.32521 57.4921 3.70192 57.2692 4.02117C57.0464 4.34041 56.7368 4.58875 56.3772 4.73673C56.1382 4.81309 55.891 4.86146 55.6409 4.88083C55.1117 4.8945 54.6079 5.11141 54.2336 5.48675C53.8593 5.86208 53.643 6.36718 53.6293 6.89781V7.33C53.7279 7.7762 53.9759 8.17508 54.3322 8.46017C54.6884 8.74526 55.1312 8.89939 55.587 8.89682C56.0419 8.89611 56.4832 8.74077 56.8387 8.45621C57.1943 8.17166 57.4432 7.77464 57.5447 7.33V7.76225C57.5291 8.15162 57.4023 8.52828 57.1794 8.84752C56.9566 9.16676 56.647 9.41516 56.2875 9.56314C56.0497 9.64469 55.802 9.69314 55.5511 9.70718C55.0205 9.71644 54.5142 9.93194 54.1389 10.3082C53.7636 10.6845 53.5488 11.1921 53.5396 11.7242C53.5408 12.088 53.6411 12.4447 53.8296 12.7556C54.0181 13.0665 54.2877 13.3199 54.6092 13.4886C54.9308 13.6572 55.2921 13.7346 55.6544 13.7125C56.0166 13.6903 56.3658 13.5695 56.6646 13.363L56.8801 13.471C57.6524 15.38 64.2259 31.4799 65.1957 33.785C65.1957 34.0011 65.1957 34.0912 65.0341 34.1452C64.5419 34.2212 64.0921 34.4687 63.7636 34.8441C63.4352 35.2195 63.2491 35.6989 63.2381 36.1982C63.2226 36.4931 63.2718 36.7879 63.3824 37.0617C63.493 37.3354 63.6622 37.5815 63.8781 37.7825C64.0939 37.9834 64.3512 38.1344 64.6316 38.2248C64.9121 38.3151 65.2089 38.3425 65.5011 38.3052C65.9144 38.304 66.3168 38.1716 66.6505 37.927C66.8301 37.819 66.9738 37.927 67.0456 37.927L72.2182 50.5332C72.415 51.2241 72.8327 51.8309 73.4071 52.2604C73.9815 52.6899 74.6807 52.9183 75.3971 52.9104H85.5267C85.7279 52.9312 85.931 52.8967 86.1141 52.8106C86.2973 52.7245 86.4536 52.5899 86.5662 52.4214C86.6788 52.253 86.7435 52.0569 86.7534 51.8543C86.7633 51.6517 86.718 51.4503 86.6223 51.2716L65.8064 2.28755Z" fill="white"/>
<path d="M195.623 50.7689C194.689 49.7063 174.394 25.2683 174.394 25.2683C174.394 25.2683 192.229 4.07193 193.181 3.02742C193.772 2.53606 194.162 1.84369 194.276 1.08243C194.276 0.308052 193.701 0.00194599 192.947 0.00194599H182.961C182.359 -0.0656366 181.75 0.026935 181.195 0.270364C180.64 0.513793 180.159 0.899471 179.8 1.38861C178.723 2.5952 159.092 26.1868 159.092 26.1868C159.092 26.1868 178.525 49.8324 179.818 51.3991C180.185 52.004 180.721 52.4871 181.36 52.7882C181.999 53.0893 182.712 53.1949 183.41 53.092H194.743C195.058 53.0971 195.363 52.9802 195.594 52.7654C195.825 52.5506 195.964 52.2547 195.982 51.9394C196.007 51.73 195.988 51.5176 195.926 51.316C195.864 51.1144 195.761 50.9281 195.623 50.7689Z" fill="white"/>
<path d="M134.468 42.8649H109.145V1.15644C109.14 0.849119 109.015 0.556008 108.796 0.340363C108.578 0.124717 108.284 0.00386988 107.977 0.00390626H93.609C93.3041 0.00390626 93.0117 0.125314 92.7962 0.341462C92.5806 0.55761 92.4595 0.850764 92.4595 1.15644V7.98181C92.4594 8.28917 92.58 8.5842 92.7951 8.80322C93.0101 9.02223 93.3025 9.14764 93.609 9.15237H96.0515V51.8333C96.0515 52.1407 96.1721 52.4357 96.3871 52.6547C96.6022 52.8738 96.8945 52.9992 97.201 53.0039H134.468C134.773 53.0039 135.066 52.8824 135.281 52.6663C135.497 52.4501 135.618 52.157 135.618 51.8513V44.0175C135.618 43.7118 135.497 43.4186 135.281 43.2025C135.066 42.9863 134.773 42.8649 134.468 42.8649Z" fill="white"/>
</g>
<defs>
<clipPath id="clip0_1398_9999">
<rect width="196" height="53" fill="white"/>
</clipPath>
</defs>
</svg>
